<svg width="64" height="64" viewBox="0 0 64 64" fill="none" xmlns="http://www.w3.org/2000/svg">
<g clip-path="url(#clip0_2421_188)">
<path fill-rule="evenodd" clip-rule="evenodd" d="M0 0H64V64H0V0Z" fill="#E6E6E7"/>
<path fill-rule="evenodd" clip-rule="evenodd" d="M12.9116 24.0231C14.9993 24.0231 16.773 24.7449 18.2489 26.2364C19.74 27.7122 20.4625 29.4859 20.4625 31.574C20.4625 33.693 19.7403 35.4826 18.2489 36.9425C16.773 38.434 14.9993 39.1714 12.9116 39.1714C10.7919 39.1714 9.00262 38.434 7.5427 36.9425C6.05124 35.4829 5.31348 33.693 5.31348 31.574C5.31348 29.4859 6.05124 27.7122 7.5427 26.2364C9.00262 24.7449 10.7919 24.0231 12.9116 24.0231V24.0231Z" fill="#67687A"/>
<path d="M14.9995 25.7968C14.9995 25.907 15.0308 26.001 15.1094 26.0796C15.1566 26.1892 15.2349 26.2994 15.3448 26.3778L15.6745 26.6288C15.8419 26.7549 16.0271 26.8554 16.2241 26.927L16.648 27.0213C16.7732 27.0213 16.8835 27.0057 16.9618 26.9741C16.998 26.9612 17.0308 26.9404 17.058 26.9132C17.0851 26.8861 17.1059 26.8532 17.1189 26.8171C17.1504 26.7855 17.1504 26.7387 17.1504 26.66V26.6288L17.1189 26.6129L17.0714 26.4562C16.993 26.2991 16.8835 26.158 16.7732 26.0322L16.569 25.8751L16.3336 25.6869C16.1454 25.5926 15.9727 25.5142 15.8313 25.483C15.7029 25.4508 15.5711 25.435 15.4388 25.4358C15.3133 25.4515 15.2346 25.4515 15.1875 25.483L15.0304 25.5929C14.9995 25.64 14.968 25.7184 14.9995 25.7968C14.9521 25.7655 14.8425 25.7496 14.6854 25.7184L14.0104 25.5929C13.351 25.5145 12.7547 25.5145 12.2052 25.6085C12.252 25.8754 12.3619 26.1424 12.4878 26.3934C13.351 26.1424 14.2146 26.0322 15.1094 26.0796M14.8425 24.541L15.8313 24.9019L16.6002 25.2944C16.9093 25.4804 17.2033 25.6905 17.4794 25.9226L18.0605 26.4562L18.2172 26.6129C18.4998 26.927 18.7667 27.2411 19.0021 27.5708C19.0805 27.7122 19.1592 27.8377 19.2375 27.9632L19.5516 28.5755C19.9753 29.4859 20.1795 30.5062 20.1795 31.574L20.1479 32.3589C20.0224 33.5987 19.5984 34.7136 18.8922 35.7336C18.6465 36.0934 18.3681 36.4296 18.0605 36.738C17.7148 37.068 17.3848 37.3665 17.0086 37.6172C16.4767 37.9853 15.8953 38.2762 15.2818 38.4811C14.5596 38.7478 13.7747 38.8736 12.9114 38.8736C12.7544 38.8736 12.6129 38.8736 12.4874 38.8573C11.7812 38.8261 11.1059 38.7003 10.478 38.4649C9.97565 38.2769 9.50451 38.0724 9.06491 37.7743C8.6097 37.4914 8.17043 37.1308 7.74643 36.738L7.66807 36.6603C7.33837 36.3147 7.04021 35.9534 6.7892 35.5766C6.36554 34.9328 6.05144 34.2418 5.86285 33.5203C5.7058 32.9081 5.62744 32.2643 5.62744 31.574C5.62744 31.0873 5.68986 30.6161 5.76855 30.1609C5.84876 29.6377 6.00749 29.1296 6.23937 28.6538C6.39098 28.2877 6.57488 27.9358 6.78887 27.6023C7.07142 27.2099 7.38552 26.8174 7.74643 26.4562C8.02555 26.1783 8.32462 25.9211 8.64124 25.6869C9.70904 24.8863 10.9488 24.4155 12.3304 24.3368L12.9114 24.3053H13.1937C13.775 24.3368 14.3242 24.4159 14.8425 24.541ZM14.8425 24.541C15.1094 24.8548 15.3136 25.1377 15.4391 25.4362C14.1047 24.6669 13.0844 24.3056 12.331 24.3372L12.2055 24.8236C13.2411 24.808 14.1831 25.0437 15.0311 25.5929M15.8313 24.9019V25.483M16.3336 25.6869L16.6006 25.2944M16.7732 26.0322L17.4798 25.9223M15.3445 26.3778C14.6854 26.6129 14.0101 26.9741 13.351 27.4453C13.7119 27.7906 14.1672 28.1043 14.6854 28.4184L15.6745 26.6288M14.6854 28.4184C15.2349 28.7013 15.7373 28.9364 16.2081 29.0934L16.2237 26.927M16.6477 27.0213C17.0402 27.7906 17.3539 28.5755 17.5422 29.3601C17.8247 29.376 18.1073 29.3601 18.3743 29.282C18.0917 28.4968 17.6206 27.7275 16.9615 26.9741M18.3743 29.282C18.6226 29.2162 18.8604 29.1159 19.0808 28.9839C18.5784 28.026 17.9346 27.3198 17.1185 26.8174M19.0808 28.9835C19.2691 28.858 19.4261 28.7322 19.5516 28.5755C19.0021 27.6023 18.2172 26.9429 17.1497 26.6288M17.0714 26.4562C17.4326 26.4562 17.8251 26.5033 18.2175 26.6129M16.2081 29.0934C16.6949 29.2505 17.1501 29.3289 17.5425 29.3601C17.7779 30.6161 17.7779 31.8722 17.5581 33.1279C18.0748 33.1454 18.5905 33.0709 19.0811 32.9081C19.1127 31.5737 18.8773 30.3807 18.3746 29.282M20.1483 32.3589C19.8197 32.5908 19.4604 32.7756 19.0808 32.9081C19.0024 34.0851 18.7196 35.1058 18.2172 35.969L18.8922 35.7336M13.7119 36.0474C14.5755 36.2672 15.3917 36.3456 16.2081 36.3147C16.836 35.3256 17.2756 34.2422 17.5578 33.1279C16.9143 33.1279 16.2237 32.9864 15.47 32.751C15.0779 33.9599 14.4812 35.0586 13.7119 36.0474ZM13.7119 36.0474C12.77 35.812 11.8124 35.4195 10.7921 34.8704L9.53638 36.9741C10.2426 37.3821 10.9492 37.7271 11.6557 37.9632C12.4091 37.4449 13.1156 36.8167 13.7119 36.0474ZM17.0086 37.6175C17.4638 37.1779 17.8566 36.6284 18.2175 35.969C17.5581 36.1888 16.8831 36.2828 16.2081 36.3147C15.6271 37.3038 14.8737 38.0415 13.9321 38.4811C14.3717 38.5124 14.8425 38.5124 15.2821 38.4811M19.0808 28.9835C19.63 30.0039 19.9912 31.1341 20.1483 32.3589M16.2081 29.0934C16.1766 30.3495 15.9415 31.574 15.47 32.7514C14.6539 32.5004 13.775 32.0764 12.8331 31.5265L12.8487 31.5584L10.7921 34.8707C9.81894 34.274 9.00282 33.6146 8.35902 32.9084C8.01338 33.6774 7.77797 34.5094 7.58972 35.4829V35.4986C8.17076 36.0321 8.82983 36.5192 9.53638 36.9744L9.06524 37.7746M12.2052 24.8236C10.8705 24.808 9.69343 25.0905 8.64157 25.6872C8.61003 26.064 8.61003 26.4253 8.68872 26.7706C9.78773 26.1112 10.9651 25.7503 12.2052 25.6088C12.1737 25.348 12.1737 25.0844 12.2052 24.8236M5.86318 33.5203L6.08298 33.8032C6.20849 32.7358 6.44389 31.8878 6.7892 31.2443L6.96185 30.9458L6.7892 30.6161C6.55346 30.0825 6.39675 29.533 6.28685 28.9835L5.76888 30.1606M6.28685 28.9835L6.2397 28.6538M6.96185 30.9458C7.62093 29.8787 8.37429 28.9679 9.23789 28.1986C8.95501 27.7278 8.76708 27.257 8.68839 26.7703C8.01305 27.0996 7.38585 27.6335 6.78887 28.3085C6.63182 28.5127 6.47477 28.7481 6.28651 28.9835M10.4939 29.7525C11.1062 30.3492 11.8911 30.9299 12.8331 31.5262L14.6854 28.4184M8.35902 32.9081C7.77797 32.3114 7.30749 31.652 6.96185 30.9455M7.58972 35.4982C7.57411 35.8751 7.58971 36.2672 7.66841 36.6603M6.08298 33.8032L6.7892 34.6974L7.58972 35.4982M12.4878 38.8573L13.9321 38.4811C13.1628 38.4021 12.4094 38.2451 11.656 37.9629C11.3419 38.1983 10.9495 38.3553 10.4787 38.4649M10.4939 29.7525C9.64975 30.7083 8.9322 31.7689 8.35902 32.9081M12.4878 26.3934C11.2908 26.7626 10.1841 27.3775 9.23822 28.1986C9.55232 28.7325 9.97632 29.2505 10.4939 29.7528C11.3104 28.8268 12.2839 28.0731 13.351 27.4456C12.9586 27.0996 12.676 26.739 12.4878 26.3934Z" stroke="white" stroke-width="0.287867" stroke-miterlimit="2.613" stroke-linecap="round" stroke-linejoin="round"/>
<path fill-rule="evenodd" clip-rule="evenodd" d="M44.3228 29.4072C44.6366 29.376 44.872 29.5174 45.0297 29.7684C45.1711 29.9882 45.2176 30.1921 45.2176 30.4278C45.1864 30.6632 45.1392 30.8986 45.0134 31.0869C44.8564 31.3382 44.621 31.4797 44.3228 31.4797H43.7574V29.4072H44.3228V29.4072ZM41.7174 29.2505L42.3452 29.4859V34.3839L41.7174 34.5875V35.0901H45.0137C45.6104 35.0118 46.05 34.792 46.3638 34.4307C46.6619 34.117 46.819 33.7557 46.819 33.3005C46.819 32.8925 46.6775 32.5159 46.3956 32.2331C46.1127 31.8878 45.6887 31.7307 45.1711 31.7307C45.6413 31.6836 46.0032 31.4953 46.2698 31.1815C46.5052 30.899 46.5992 30.5381 46.5836 30.1453C46.5517 29.7528 46.4265 29.4391 46.1596 29.1409C45.8773 28.8583 45.5008 28.7328 45.0609 28.7328H41.7174V29.2505V29.2505ZM51.0729 28.7325L52.7997 34.3843L53.3333 34.5878V35.1061H50.6339V34.5878L51.3402 34.3843L50.9162 32.7826H48.9858L48.5462 34.3843L49.1896 34.5878V35.1061H46.9451V34.5878L47.4634 34.3843L49.3467 28.7325H51.0729V28.7325ZM44.433 34.3843H43.7574V32.1235H44.433C44.778 32.1235 45.0297 32.2643 45.2176 32.5468C45.3434 32.7822 45.4218 33.0183 45.4218 33.2849C45.4216 33.5251 45.3505 33.7599 45.2176 33.9599C45.0297 34.2421 44.778 34.3843 44.433 34.3843V34.3843ZM49.189 32.0445L50.0054 29.282L50.7123 32.0445H49.189ZM24.3866 31.8721C24.3083 33.4108 24.9673 34.4619 26.3018 35.0274C27.4323 35.4507 28.6093 35.4042 29.881 34.8703V32.9708L30.4617 32.751V32.2331H27.8248V32.7513L28.4526 32.9712V34.3843C27.6365 34.3999 27.0083 34.2265 26.569 33.8344C26.0982 33.442 25.8628 32.9084 25.8313 32.2334C25.7838 30.899 26.1762 30.0045 27.0083 29.6117C27.4479 29.4391 27.9503 29.3604 28.4998 29.4075L28.8135 30.1453H29.9437V28.9367C28.6093 28.4343 27.3692 28.4343 26.2549 28.9367C25.7054 29.1721 25.2502 29.5646 24.9209 30.0669C24.5749 30.5849 24.4178 31.1815 24.3866 31.8721V31.8721ZM32.5807 29.4859V34.3839H33.9154L34.2604 33.5356H35.2811V35.1057H30.5401V34.5875L31.1679 34.3839V29.4859L30.5401 29.2189V28.7325H33.2401V29.2189L32.5807 29.4859V29.4859ZM37.3685 30.0666C37.6829 29.5642 38.0754 29.3288 38.515 29.3288C38.9702 29.3288 39.3308 29.5958 39.6445 30.1449C39.88 30.553 40.0058 31.1025 40.0058 31.8091C40.0058 32.672 39.9118 33.3005 39.692 33.6926C39.4091 34.2262 38.9858 34.4779 38.4994 34.4779C37.9967 34.5091 37.5727 34.2418 37.2898 33.6926C37.0863 33.3002 36.9761 32.672 36.9761 31.8091C36.9761 31.1028 37.1019 30.5062 37.3685 30.0666V30.0666ZM36.301 29.5174C36.8665 28.8892 37.6046 28.5755 38.4994 28.5755C39.4091 28.5755 40.1472 28.8892 40.712 29.5174C41.2147 30.0666 41.4816 30.8518 41.4973 31.8406V31.8878C41.4973 32.9081 41.2144 33.7245 40.6652 34.3843C40.116 35.0121 39.3779 35.3259 38.4994 35.3259C37.5571 35.3259 36.819 35.0121 36.2698 34.3843C35.7207 33.7713 35.4534 32.9712 35.4534 31.8878C35.4534 30.9299 35.7519 30.1137 36.301 29.5174V29.5174ZM56.5988 29.2189V28.7325H53.8835V29.2189L54.5578 29.5174V34.3843L53.8835 34.5878V35.1057H58.6869V33.5359H57.572L57.1798 34.3843H55.9709V29.5174L56.5988 29.2189Z" fill="#67687A"/>
<path fill-rule="evenodd" clip-rule="evenodd" d="M25.1418 38.3613C25.0908 38.3323 25.0331 38.3171 24.9744 38.3172C24.9037 38.3172 24.833 38.3348 24.7712 38.3789C24.7092 38.4237 24.6653 38.4762 24.6212 38.5652C24.577 38.6528 24.568 38.7591 24.568 38.8733C24.568 39.0679 24.6122 39.2007 24.6829 39.2883C24.7536 39.3773 24.8596 39.4211 24.9924 39.4211L25.169 39.3946C25.2311 39.3591 25.2749 39.3328 25.3191 39.2883V39.0237H24.9748V38.8647H25.4602V39.377C25.3948 39.4406 25.3204 39.4942 25.2394 39.536C25.169 39.5802 25.0804 39.5978 24.992 39.5978C24.888 39.5997 24.786 39.5688 24.7005 39.5095C24.6119 39.4477 24.5328 39.3773 24.4887 39.2707C24.4445 39.1735 24.418 39.0413 24.418 38.8912C24.418 38.7322 24.4449 38.5994 24.4887 38.4938C24.5328 38.3789 24.6122 38.2909 24.7005 38.2461C24.7712 38.2026 24.8775 38.1671 24.9744 38.1671C25.0628 38.1671 25.1418 38.1847 25.1952 38.2112C25.2749 38.2461 25.3191 38.2909 25.3626 38.3434C25.4067 38.3882 25.4333 38.4672 25.4509 38.5652L25.3191 38.6263C25.3053 38.5625 25.2781 38.5024 25.2394 38.45C25.2186 38.4096 25.1839 38.3781 25.1418 38.3613V38.3613ZM25.6717 38.1843H25.8038V39.5709H25.6717V38.1843ZM26.5104 38.7853C26.4926 38.7546 26.4667 38.7292 26.4356 38.7121C26.4045 38.695 26.3693 38.6866 26.3338 38.688C26.2997 38.6878 26.2662 38.6968 26.2367 38.7139C26.2072 38.731 26.1828 38.7556 26.1661 38.7853C26.1219 38.8471 26.0957 38.9351 26.0957 39.0675C26.0957 39.2003 26.1219 39.288 26.1661 39.3587C26.1856 39.3872 26.2121 39.4103 26.243 39.4259C26.2739 39.4415 26.3082 39.449 26.3427 39.4477C26.4045 39.4477 26.4662 39.4211 26.5104 39.3587C26.5542 39.288 26.5811 39.2003 26.5811 39.0675C26.5811 38.9354 26.5542 38.8471 26.5104 38.7853ZM26.0691 38.688C26.1007 38.6455 26.142 38.6112 26.1896 38.5881C26.2373 38.565 26.2898 38.5537 26.3427 38.5552C26.4483 38.5552 26.5366 38.5994 26.6073 38.688C26.687 38.7588 26.7309 38.8909 26.7309 39.0499C26.7309 39.2438 26.687 39.3767 26.6073 39.465C26.5366 39.5533 26.4483 39.5971 26.3427 39.5971C26.2899 39.5986 26.2374 39.5874 26.1898 39.5644C26.1422 39.5414 26.1008 39.5073 26.0691 39.465C25.9898 39.3767 25.945 39.2438 25.945 39.0675C25.945 38.8912 25.9898 38.7588 26.0691 38.688ZM27.0227 38.1843V38.6884L27.1286 38.5821L27.2608 38.5556C27.3139 38.5556 27.376 38.5652 27.4198 38.6087C27.4842 38.6452 27.5316 38.7055 27.552 38.7767C27.5789 38.8474 27.5965 38.953 27.5965 39.0679C27.5965 39.2269 27.5702 39.3591 27.4905 39.448C27.4198 39.5536 27.3491 39.5978 27.2432 39.5978C27.1958 39.5954 27.15 39.5801 27.1107 39.5536C27.0672 39.536 27.04 39.4919 27.0227 39.448V39.5712H26.8902V38.1847H27.0227V38.1843V38.1843ZM27.3933 38.7763C27.3491 38.7146 27.3046 38.688 27.2256 38.688C27.1814 38.688 27.1286 38.7146 27.0845 38.7853C27.04 38.8471 27.0048 38.9351 27.0048 39.0675C27.0048 39.1731 27.0227 39.2438 27.04 39.288C27.0493 39.3504 27.0845 39.3943 27.1286 39.4029C27.1549 39.4384 27.199 39.4477 27.2432 39.4477C27.3049 39.4477 27.3491 39.4211 27.3933 39.3587C27.4377 39.288 27.464 39.2003 27.464 39.0675C27.464 38.9354 27.4377 38.8471 27.3933 38.7763V38.7763ZM28.3206 38.5994C28.3648 38.6259 28.4086 38.6708 28.4176 38.7149C28.4355 38.7591 28.4355 38.8298 28.4355 38.9178V39.1559C28.4355 39.3149 28.4355 39.4029 28.4527 39.4477L28.4793 39.5709H28.3292L28.3027 39.4477C28.2594 39.4916 28.2086 39.5274 28.1526 39.5533C28.1101 39.5799 28.0615 39.5951 28.0115 39.5974C27.9232 39.5974 27.8435 39.5709 27.7997 39.5091C27.7555 39.465 27.7289 39.3943 27.7289 39.3063C27.7289 39.2438 27.7465 39.2007 27.7558 39.1559L27.8614 39.0503C27.9056 39.0237 27.9673 39.0061 28.0556 38.9978C28.1526 38.9795 28.2409 38.953 28.2847 38.9354L28.3027 38.8912C28.3055 38.8375 28.2899 38.7845 28.2585 38.7408C28.232 38.6967 28.1702 38.6884 28.0995 38.6884C28.0377 38.6884 27.9939 38.6967 27.9494 38.7325C27.9232 38.7591 27.9056 38.8032 27.8876 38.8733L27.7462 38.865C27.7552 38.7594 27.7993 38.6711 27.8611 38.6263C27.9232 38.5821 28.0115 38.5556 28.1257 38.5556C28.1971 38.5552 28.2764 38.5648 28.3206 38.5994V38.5994ZM28.038 39.465C28.0819 39.465 28.1264 39.4474 28.1705 39.4208C28.2147 39.3942 28.2409 39.3584 28.2588 39.3146C28.2764 39.2704 28.2851 39.2179 28.2851 39.1296V39.0672C28.2409 39.0938 28.1705 39.1114 28.0646 39.1296C28.0118 39.1379 27.9677 39.1555 27.9497 39.1731L27.888 39.2179L27.8793 39.3063C27.8793 39.3504 27.888 39.3946 27.9235 39.4211C27.9497 39.4477 27.9942 39.465 28.038 39.465V39.465ZM28.6563 38.1843H28.7888V39.5709H28.6563V38.1843ZM30.2457 38.6083C30.2019 38.4234 30.0953 38.3172 29.9369 38.3172C29.8671 38.3158 29.7988 38.3375 29.7427 38.3789C29.6852 38.4264 29.6399 38.4868 29.6102 38.5552C29.5836 38.6435 29.566 38.7408 29.566 38.8647C29.566 39.0503 29.6016 39.2007 29.6547 39.288C29.734 39.3943 29.822 39.4384 29.919 39.4384C30.0015 39.439 30.081 39.4073 30.1404 39.3501C30.2025 39.2877 30.246 39.2003 30.2643 39.0848L30.4051 39.1296C30.3788 39.288 30.3167 39.4026 30.2284 39.4822C30.1502 39.5572 30.0456 39.5984 29.9372 39.5971C29.8313 39.5971 29.7344 39.5706 29.6547 39.5088C29.584 39.4646 29.5222 39.3767 29.4777 39.2701C29.4301 39.143 29.4062 39.0083 29.407 38.8726C29.407 38.7143 29.4342 38.5815 29.4777 38.4759C29.5222 38.3786 29.6016 38.2989 29.6719 38.2458C29.7427 38.2023 29.8486 38.1667 29.9545 38.1667C30.0518 38.1667 30.1577 38.2023 30.2284 38.273C30.3078 38.3348 30.3609 38.432 30.3964 38.5648L30.2457 38.6083V38.6083ZM31.0844 38.7853C31.0667 38.7546 31.0409 38.7292 31.0098 38.7121C30.9787 38.6949 30.9435 38.6866 30.9081 38.688C30.846 38.688 30.7929 38.7146 30.749 38.7853C30.7052 38.8471 30.67 38.9351 30.67 39.0675C30.67 39.2003 30.7052 39.288 30.749 39.3587C30.7929 39.4211 30.846 39.4477 30.926 39.4477C30.9785 39.4477 31.0409 39.4211 31.0847 39.3587C31.1292 39.288 31.1554 39.2003 31.1554 39.0675C31.1551 38.9354 31.1289 38.8471 31.0844 38.7853V38.7853ZM30.6431 38.688C30.7138 38.599 30.8018 38.5552 30.9257 38.5552C31.0226 38.5552 31.1109 38.5994 31.1906 38.688C31.261 38.7588 31.3055 38.8909 31.3055 39.0499C31.3055 39.2438 31.2614 39.3767 31.1906 39.465C31.1109 39.5533 31.023 39.5971 30.9257 39.5971C30.8018 39.5971 30.7138 39.553 30.6431 39.465C30.5724 39.377 30.5282 39.2438 30.5282 39.0675C30.5282 38.8912 30.5727 38.7588 30.6431 38.688ZM32.3205 38.5552C32.3919 38.5552 32.4716 38.5818 32.5151 38.6259C32.5592 38.6708 32.5858 38.7588 32.5858 38.873V39.5709H32.4361V38.9354C32.4361 38.8647 32.4361 38.8205 32.4271 38.7856L32.3829 38.7149L32.2946 38.6967C32.2329 38.6967 32.1884 38.7149 32.1442 38.7591C32.1001 38.8032 32.0821 38.8733 32.0821 38.9795V39.5709H31.9496V38.9178C31.9496 38.8295 31.941 38.7763 31.9234 38.7408C31.8918 38.7125 31.851 38.6968 31.8085 38.6967C31.7468 38.6967 31.7023 38.7322 31.6585 38.7763C31.615 38.8205 31.5964 38.9178 31.5964 39.0499V39.5706H31.4639V38.5648H31.5874V38.7146C31.6146 38.6522 31.6581 38.6083 31.702 38.599L31.8348 38.5549C31.8965 38.5549 31.9403 38.5645 31.9848 38.599C32.029 38.6256 32.0559 38.6704 32.0735 38.7146C32.0997 38.6704 32.1439 38.6256 32.188 38.599L32.3205 38.5552ZM32.9125 38.5648V38.6963C32.9391 38.6432 32.9656 38.599 33.0091 38.5814L33.142 38.5549C33.2044 38.5549 33.2658 38.5645 33.3189 38.608C33.3631 38.6429 33.4066 38.6963 33.4421 38.776C33.4687 38.8467 33.4863 38.9523 33.4863 39.0496C33.4863 39.2259 33.4507 39.3584 33.3807 39.447C33.31 39.5526 33.2309 39.5968 33.1337 39.5968C33.0895 39.5968 33.054 39.5792 33.0091 39.5526L32.9125 39.4643V39.9501H32.7804V38.5642H32.9125V38.5648V38.5648ZM33.2744 38.7763C33.2309 38.7146 33.1868 38.688 33.1337 38.688C33.0995 38.6877 33.0659 38.6965 33.0363 38.7136C33.0067 38.7307 32.9823 38.7555 32.9656 38.7853C32.9208 38.8471 32.9125 38.9527 32.9125 39.0848C32.9125 39.2176 32.9208 39.3059 32.9656 39.3584C33.0091 39.4208 33.054 39.4474 33.1337 39.4474C33.1868 39.4474 33.2309 39.4208 33.2744 39.3584C33.3193 39.2877 33.3541 39.2 33.3541 39.0672C33.3541 38.9354 33.3193 38.8295 33.2744 38.7763ZM34.1576 38.7853C34.1406 38.7539 34.115 38.728 34.0837 38.7108C34.0525 38.6935 34.0169 38.6856 33.9813 38.688C33.9282 38.688 33.8664 38.7146 33.8223 38.7853C33.7774 38.8471 33.7516 38.9351 33.7516 39.0675C33.7516 39.2003 33.7774 39.288 33.8223 39.3587C33.8418 39.3872 33.8682 39.4103 33.899 39.4259C33.9298 39.4414 33.9641 39.4489 33.9986 39.4477C34.0603 39.4477 34.1135 39.4211 34.1576 39.3587C34.2018 39.288 34.2373 39.2003 34.2373 39.0675C34.2373 38.9354 34.2018 38.8471 34.1576 38.7853ZM33.716 38.688C33.7957 38.599 33.8834 38.5552 33.9989 38.5552C34.1052 38.5552 34.1935 38.5994 34.2635 38.688C34.3343 38.7588 34.3784 38.8909 34.3784 39.0499C34.3784 39.2438 34.3343 39.3767 34.2635 39.465C34.2331 39.5064 34.1932 39.54 34.1472 39.563C34.1012 39.586 34.0503 39.5977 33.9989 39.5971C33.8834 39.5971 33.796 39.553 33.716 39.465C33.6453 39.3767 33.6011 39.2438 33.6011 39.0675C33.6011 38.8912 33.6453 38.7588 33.716 38.688ZM34.661 38.5648V38.7146L34.7759 38.5818C34.82 38.5648 34.8642 38.5552 34.9263 38.5552L35.0411 38.5648L35.1467 38.6432L35.1909 38.7405C35.2085 38.7853 35.2085 38.8643 35.2085 38.9527V39.5706H35.0763V38.9616C35.0763 38.8909 35.0763 38.8295 35.0587 38.8026L34.997 38.7143L34.8997 38.696C34.82 38.696 34.7759 38.7315 34.7317 38.7757C34.6875 38.8198 34.6786 38.9078 34.6786 39.0227V39.5699H34.5464V38.5642H34.661V38.5648V38.5648ZM35.9233 38.7763C35.8792 38.7146 35.835 38.688 35.7643 38.688C35.6936 38.688 35.6494 38.7146 35.6053 38.7588C35.5611 38.8205 35.5262 38.8909 35.5262 38.9792H35.9854C35.9682 38.8912 35.9592 38.8205 35.9233 38.7763V38.7763ZM35.4817 38.688C35.5614 38.599 35.6587 38.5552 35.7646 38.5552C35.8709 38.5552 35.9592 38.5994 36.0299 38.688C36.1006 38.7764 36.1355 38.9085 36.1355 39.0675V39.1117H35.5176C35.5266 39.2179 35.5618 39.3063 35.6059 39.3587C35.6501 39.4211 35.7032 39.4477 35.765 39.4477C35.8712 39.4477 35.9419 39.377 35.9861 39.2442L36.1358 39.2707C36.101 39.377 36.0568 39.4653 36.0043 39.5095C35.9419 39.5712 35.8715 39.5978 35.765 39.5978C35.6501 39.5978 35.5621 39.5536 35.4821 39.4656C35.4113 39.3773 35.3848 39.2445 35.3848 39.0855C35.3845 38.9088 35.411 38.7764 35.4817 38.688V38.688ZM36.4091 38.5648V38.7146L36.5329 38.5818C36.5771 38.5648 36.6213 38.5552 36.6744 38.5552L36.7982 38.5648L36.8948 38.6432L36.9397 38.7405C36.9573 38.7853 36.9573 38.8643 36.9573 38.9527V39.5706H36.8245V38.9616C36.8245 38.8909 36.8245 38.8295 36.8069 38.8026L36.7537 38.7143L36.6481 38.696C36.5774 38.696 36.5333 38.7315 36.4891 38.7757C36.4449 38.8198 36.4273 38.9078 36.4273 39.0227V39.5699H36.2945V38.5642H36.4091V38.5648V38.5648ZM37.4868 38.5648V38.6963H37.3364V39.2877C37.3364 39.3325 37.3364 39.3767 37.354 39.3939C37.3723 39.4022 37.3806 39.4205 37.4248 39.4205H37.4872L37.5048 39.5702L37.3985 39.5792C37.3585 39.5808 37.3188 39.5717 37.2836 39.5526C37.2488 39.535 37.2395 39.5085 37.2219 39.4819C37.2043 39.4377 37.2043 39.3763 37.2043 39.2697V38.6957H37.1063V38.5642H37.2043V38.3165L37.3364 38.2102V38.5642H37.4868V38.5648V38.5648ZM38.0609 38.5818C38.1044 38.5994 38.1486 38.6259 38.1665 38.6708C38.1967 38.7182 38.2121 38.7736 38.2107 38.8298L38.0785 38.8471C38.0609 38.7408 37.9988 38.688 37.9022 38.688C37.8405 38.688 37.796 38.6963 37.7694 38.7146L37.7252 38.8202C37.7252 38.8643 37.7342 38.8909 37.7694 38.9085C37.7784 38.9175 37.8408 38.9351 37.9108 38.9616C38.034 39.0058 38.1047 39.0406 38.132 39.0499C38.1755 39.0675 38.211 39.0941 38.2203 39.1383L38.2552 39.2704C38.2552 39.3767 38.2203 39.4474 38.1489 39.5091C38.0878 39.5709 38.0168 39.5974 37.9108 39.5974C37.7252 39.5974 37.6021 39.4919 37.5582 39.2707L37.708 39.2442C37.7256 39.3149 37.7345 39.3591 37.7697 39.4032C37.8098 39.4349 37.8601 39.4508 37.9112 39.448C37.9736 39.448 38.0168 39.4391 38.0616 39.4032C38.0903 39.3719 38.1059 39.3308 38.1051 39.2883C38.1051 39.2442 38.0881 39.2183 38.0616 39.2007C38.0433 39.1824 37.9902 39.1735 37.9112 39.1383C37.8146 39.1117 37.7349 39.0851 37.7083 39.0499C37.6641 39.041 37.6376 39.0058 37.62 38.9616C37.6024 38.9175 37.5934 38.8726 37.5934 38.8295C37.5934 38.7405 37.62 38.6704 37.6641 38.6259C37.7259 38.5818 37.7963 38.5552 37.9029 38.5552C37.9543 38.5552 38.0161 38.5648 38.0609 38.5818V38.5818ZM39.4033 38.5994C39.4475 38.6259 39.4916 38.6708 39.4999 38.7149C39.5182 38.7591 39.5182 38.8298 39.5182 38.9178V39.1559C39.5182 39.3149 39.5182 39.4029 39.5358 39.4477L39.5617 39.5709H39.4119L39.3854 39.4477C39.3421 39.4918 39.2911 39.5276 39.235 39.5533C39.1925 39.5801 39.1437 39.5953 39.0935 39.5974C39.0052 39.5974 38.9262 39.5709 38.882 39.5091C38.8379 39.465 38.8113 39.3943 38.8113 39.3063C38.8113 39.2438 38.8296 39.2007 38.8379 39.1559L38.9434 39.0503C38.9876 39.0237 39.0497 39.0061 39.138 38.9978C39.2161 38.9836 39.2929 38.9627 39.3674 38.9354L39.385 38.8912C39.388 38.8375 39.3724 38.7844 39.3409 38.7408C39.3143 38.6967 39.2526 38.6884 39.1818 38.6884C39.1201 38.6884 39.0756 38.6967 39.0314 38.7325C39.0049 38.7591 38.9873 38.8032 38.9697 38.8733L38.8289 38.865C38.8372 38.7594 38.8814 38.6711 38.9431 38.6263C39.0049 38.5821 39.0929 38.5556 39.2084 38.5556C39.2795 38.5552 39.3585 38.5648 39.4033 38.5994ZM39.1204 39.465C39.1639 39.465 39.2087 39.4474 39.2526 39.4208C39.2964 39.3942 39.3233 39.3584 39.3409 39.3146C39.3585 39.2707 39.3674 39.2179 39.3674 39.1296V39.0672C39.3233 39.0938 39.2526 39.1114 39.1463 39.1296C39.0932 39.1379 39.0497 39.1555 39.0314 39.1731L38.9697 39.2179L38.9607 39.3063C38.9607 39.3504 38.9697 39.3946 39.0049 39.4211C39.0318 39.4477 39.0756 39.465 39.1204 39.465V39.465ZM39.8442 38.5648V38.7146L39.9591 38.5818C40.0033 38.5648 40.0481 38.5552 40.1095 38.5552L40.2244 38.5648L40.33 38.6432L40.3741 38.7405C40.3831 38.7853 40.3831 38.8643 40.3831 38.9527V39.5706H40.2503V38.9616C40.2503 38.8909 40.2503 38.8295 40.242 38.8026L40.1802 38.7143L40.074 38.696C40.0033 38.696 39.9591 38.7315 39.915 38.7757C39.8708 38.8198 39.8532 38.9078 39.8532 39.0227V39.5699H39.721V38.5642H39.8442V38.5648V38.5648ZM40.9037 38.5552C40.9479 38.5552 40.992 38.5648 41.0359 38.5818L41.1242 38.688V38.184H41.2663V39.5706H41.1335V39.4384C41.1245 39.4826 41.081 39.5267 41.0362 39.5533C40.992 39.5799 40.9572 39.5974 40.913 39.5974C40.8157 39.5974 40.736 39.5533 40.666 39.4477C40.5953 39.3587 40.5597 39.2266 40.5597 39.0675C40.5597 38.9527 40.578 38.8471 40.6039 38.7763C40.6394 38.6967 40.6836 38.6435 40.7277 38.6083C40.7799 38.5648 40.8423 38.5552 40.9037 38.5552V38.5552ZM41.081 38.7853C41.0641 38.7557 41.0397 38.731 41.0102 38.714C40.9807 38.6969 40.9471 38.6879 40.913 38.688C40.8599 38.688 40.8157 38.7146 40.7716 38.7763C40.7274 38.8471 40.6919 38.9354 40.6919 39.0675C40.6919 39.2003 40.7274 39.288 40.7716 39.3587C40.8157 39.4211 40.8599 39.4477 40.913 39.4477C40.9462 39.4478 40.9788 39.4397 41.0081 39.4242C41.0374 39.4086 41.0624 39.3862 41.081 39.3587C41.1245 39.3063 41.1335 39.2179 41.1335 39.0851C41.1335 38.9527 41.1242 38.8471 41.081 38.7853V38.7853ZM42.3875 38.3431V39.5706H42.2378V38.3431H41.8752V38.184H42.7671V38.3431H42.3875V38.3431ZM43.4025 38.7853C43.3849 38.7545 43.3591 38.7291 43.328 38.712C43.2969 38.6948 43.2617 38.6865 43.2262 38.688C43.1645 38.688 43.112 38.7146 43.0679 38.7853C43.0237 38.8471 42.9882 38.9351 42.9882 39.0675C42.9882 39.2003 43.0237 39.288 43.0679 39.3587C43.112 39.4211 43.1645 39.4477 43.2442 39.4477C43.2973 39.4477 43.3584 39.4211 43.4025 39.3587C43.4474 39.288 43.4739 39.2003 43.4739 39.0675C43.4739 38.9354 43.447 38.8471 43.4025 38.7853ZM42.9616 38.688C43.0323 38.599 43.1207 38.5552 43.2445 38.5552C43.3411 38.5552 43.4301 38.5994 43.5091 38.688C43.5799 38.7588 43.624 38.8909 43.624 39.0499C43.624 39.2438 43.5799 39.3767 43.5091 39.465C43.4301 39.5533 43.3411 39.5971 43.2445 39.5971C43.1207 39.5971 43.0323 39.553 42.9616 39.465C42.8909 39.377 42.8467 39.2438 42.8467 39.0675C42.8467 38.8912 42.8909 38.7588 42.9616 38.688ZM44.2681 38.7853C44.2512 38.7539 44.2256 38.728 44.1943 38.7107C44.163 38.6935 44.1275 38.6856 44.0918 38.688C44.0387 38.688 43.977 38.7146 43.9328 38.7853C43.8886 38.8471 43.8621 38.9351 43.8621 39.0675C43.8621 39.2003 43.8886 39.288 43.9328 39.3587C43.9524 39.3873 43.9789 39.4104 44.0098 39.426C44.0408 39.4415 44.0752 39.449 44.1098 39.4477C44.1715 39.4477 44.224 39.4211 44.2681 39.3587C44.3123 39.288 44.3472 39.2003 44.3472 39.0675C44.3472 38.9354 44.3123 38.8471 44.2681 38.7853V38.7853ZM43.8272 38.688C43.9062 38.599 43.9946 38.5552 44.1101 38.5552C44.2157 38.5552 44.304 38.5994 44.3741 38.688C44.4448 38.7588 44.4896 38.8909 44.4896 39.0499C44.4896 39.2438 44.4448 39.3767 44.3741 39.465C44.3437 39.5063 44.3039 39.5399 44.258 39.5629C44.2121 39.5859 44.1614 39.5976 44.1101 39.5971C43.9946 39.5971 43.9066 39.553 43.8272 39.465C43.7565 39.3767 43.7123 39.2438 43.7123 39.0675C43.7123 38.8912 43.7565 38.7588 43.8272 38.688ZM44.6573 38.1843H44.7894V39.5709H44.6573V38.1843ZM45.0099 38.5648H45.142V39.5706H45.0099V38.5648ZM45.0099 38.1843H45.142V38.3879H45.0099V38.1843ZM45.4784 38.5648V38.7146L45.5933 38.5818C45.6374 38.5648 45.6816 38.5552 45.743 38.5552L45.8585 38.5648L45.9641 38.6432L46.0083 38.7405C46.0259 38.7853 46.0259 38.8643 46.0259 38.9527V39.5706H45.8937V38.9616C45.8937 38.8909 45.8937 38.8295 45.8761 38.8026L45.8137 38.7143L45.7171 38.696C45.6374 38.696 45.5933 38.7315 45.5484 38.7757C45.5049 38.8198 45.496 38.9078 45.496 39.0227V39.5699H45.3638V38.5642H45.4784V38.5648V38.5648ZM46.5203 38.5552C46.5644 38.5552 46.6086 38.5648 46.6524 38.5818C46.6966 38.5994 46.7407 38.6435 46.7763 38.688V38.5648H46.8911V39.4384C46.8911 39.5974 46.8735 39.7037 46.8646 39.7562C46.8297 39.8358 46.7856 39.88 46.7318 39.9242C46.6876 39.9683 46.6086 39.9773 46.5203 39.9773C46.4223 39.9773 46.3433 39.9507 46.2908 39.889C46.2284 39.8358 46.2025 39.7562 46.2025 39.6589L46.3347 39.6678C46.343 39.7296 46.3606 39.7741 46.3871 39.7917C46.422 39.8182 46.4668 39.8358 46.5199 39.8358C46.5731 39.8361 46.6252 39.8207 46.6697 39.7917C46.7138 39.7562 46.7314 39.712 46.7404 39.6589C46.7587 39.624 46.7587 39.5533 46.7587 39.4384C46.7314 39.4826 46.6962 39.5267 46.6524 39.5357C46.6083 39.5533 46.5641 39.5706 46.5203 39.5706C46.4747 39.5715 46.4296 39.5607 46.3894 39.5391C46.3492 39.5175 46.3152 39.4859 46.2908 39.4474C46.2105 39.3501 46.167 39.2262 46.167 39.0672C46.167 38.9616 46.1846 38.8643 46.2288 38.776C46.2553 38.6963 46.2995 38.6432 46.3436 38.599L46.5203 38.5552ZM46.6969 38.7763C46.6528 38.7146 46.5996 38.688 46.5379 38.688C46.4761 38.688 46.4223 38.7146 46.3788 38.7763C46.3347 38.8471 46.3164 38.9354 46.3164 39.0499C46.3164 39.1821 46.3347 39.2704 46.3788 39.3328C46.4223 39.4029 46.4761 39.4384 46.5379 39.4384C46.6086 39.4384 46.6528 39.4029 46.6969 39.3501C46.7411 39.2877 46.7766 39.1821 46.7766 39.0499C46.7766 38.9354 46.7407 38.8471 46.6969 38.7763ZM48.3653 38.6083C48.3218 38.4234 48.2156 38.3172 48.0566 38.3172C47.9865 38.3145 47.9177 38.3364 47.862 38.3789C47.7997 38.4213 47.7534 38.4834 47.7305 38.5552C47.7039 38.6435 47.6857 38.7408 47.6857 38.8647C47.6857 39.0503 47.7122 39.2007 47.7747 39.288C47.8447 39.3943 47.933 39.4384 48.0393 39.4384C48.1212 39.4374 48.1998 39.4059 48.2598 39.3501C48.3222 39.2877 48.3653 39.2003 48.3746 39.0848L48.525 39.1296C48.4985 39.288 48.4361 39.4026 48.3481 39.4822C48.2698 39.5572 48.1653 39.5985 48.0569 39.5971C47.9513 39.5971 47.8447 39.5706 47.7747 39.5088C47.7039 39.4646 47.6419 39.3767 47.5977 39.2701C47.5498 39.1431 47.5258 39.0083 47.527 38.8726C47.527 38.7143 47.5535 38.5815 47.5977 38.4759C47.6419 38.3786 47.7126 38.2989 47.7923 38.2458C47.875 38.1961 47.9693 38.1688 48.0659 38.1667C48.1714 38.1667 48.2774 38.2023 48.3481 38.273C48.4188 38.3348 48.4809 38.432 48.5071 38.5648L48.3653 38.6083V38.6083ZM49.2044 38.7853C49.1866 38.7545 49.1607 38.7291 49.1295 38.712C49.0983 38.6948 49.063 38.6865 49.0274 38.688C48.9934 38.6878 48.9599 38.6967 48.9305 38.7138C48.901 38.731 48.8767 38.7556 48.8601 38.7853C48.8159 38.8471 48.7893 38.9351 48.7893 39.0675C48.7893 39.2003 48.8159 39.288 48.8601 39.3587C48.8797 39.3873 48.9062 39.4104 48.9371 39.426C48.968 39.4415 49.0024 39.449 49.037 39.4477C49.0988 39.4477 49.1602 39.4211 49.2044 39.3587C49.2492 39.288 49.2751 39.2003 49.2751 39.0675C49.2751 38.9354 49.2492 38.8471 49.2044 38.7853ZM48.7628 38.688C48.7944 38.6455 48.8359 38.6112 48.8836 38.588C48.9314 38.5649 48.984 38.5537 49.037 38.5552C49.1426 38.5552 49.2309 38.5994 49.3017 38.688C49.3807 38.7588 49.4255 38.8909 49.4255 39.0499C49.4255 39.2438 49.3807 39.3767 49.3017 39.465C49.2309 39.5533 49.1426 39.5971 49.037 39.5971C48.9841 39.5986 48.9315 39.5874 48.8838 39.5644C48.8361 39.5414 48.7946 39.5073 48.7628 39.465C48.6838 39.3767 48.6396 39.2438 48.6396 39.0675C48.6396 38.8912 48.6838 38.7588 48.7628 38.688ZM49.6901 38.5648V38.7146C49.7343 38.6432 49.7608 38.599 49.7784 38.5818L49.8757 38.5552L50.0079 38.5994L49.9637 38.7588C49.9517 38.7448 49.9368 38.7336 49.92 38.7259C49.9031 38.7183 49.8849 38.7144 49.8664 38.7146L49.7867 38.7588C49.7608 38.7763 49.7433 38.8029 49.7343 38.8471L49.6994 39.041V39.5709H49.5673V38.5652H49.6901V38.5648ZM50.229 38.5648V38.6963C50.2645 38.6432 50.2908 38.599 50.3346 38.5814L50.4667 38.5549C50.5292 38.5549 50.5816 38.5645 50.643 38.608C50.6879 38.6429 50.732 38.6963 50.7586 38.776C50.7935 38.8467 50.8027 38.9523 50.8027 39.0496C50.8027 39.2259 50.7762 39.3584 50.7055 39.447C50.6258 39.5526 50.5557 39.5968 50.4498 39.5968C50.405 39.5968 50.3784 39.5792 50.3343 39.5526L50.2287 39.4643V39.9501H50.0959V38.5642H50.229V38.5648V38.5648ZM50.5992 38.7763C50.5557 38.7146 50.5109 38.688 50.4501 38.688C50.397 38.688 50.3346 38.7146 50.2908 38.7853C50.2466 38.8471 50.229 38.9527 50.229 39.0848C50.229 39.2176 50.2466 39.3059 50.2908 39.3584C50.3349 39.4208 50.3791 39.4474 50.4501 39.4474C50.5112 39.4474 50.5557 39.4208 50.5992 39.3584C50.6434 39.2877 50.6706 39.2 50.6706 39.0672C50.6706 38.9354 50.6434 38.8295 50.5992 38.7763ZM51.4834 38.7853C51.4655 38.7546 51.4396 38.7293 51.4084 38.7122C51.3772 38.695 51.342 38.6867 51.3064 38.688C51.2447 38.688 51.1915 38.7146 51.1474 38.7853C51.1032 38.8471 51.0684 38.9351 51.0684 39.0675C51.0684 39.2003 51.1032 39.288 51.1474 39.3587C51.1915 39.4211 51.2447 39.4477 51.3244 39.4477C51.356 39.4466 51.387 39.4379 51.4147 39.4225C51.4423 39.407 51.4659 39.3851 51.4834 39.3587C51.5269 39.288 51.5535 39.2003 51.5535 39.0675C51.5535 38.9354 51.5266 38.8471 51.4834 38.7853ZM51.0418 38.688C51.1119 38.599 51.2008 38.5552 51.3247 38.5552C51.4213 38.5552 51.5096 38.5994 51.5893 38.688C51.6594 38.7588 51.7042 38.8909 51.7042 39.0499C51.7042 39.2438 51.6594 39.3767 51.5893 39.465C51.5096 39.5533 51.4213 39.5971 51.3247 39.5971C51.2008 39.5971 51.1119 39.553 51.0418 39.465C50.9704 39.3767 50.9269 39.2438 50.9269 39.0675C50.9269 38.8912 50.9704 38.7588 51.0418 38.688ZM51.9858 38.5648V38.7146C52.0306 38.6432 52.0565 38.599 52.0741 38.5818L52.172 38.5552L52.3042 38.5994L52.26 38.7588C52.248 38.7448 52.233 38.7336 52.2162 38.7259C52.1994 38.7183 52.1812 38.7144 52.1627 38.7146L52.083 38.7588C52.0565 38.7763 52.0389 38.8029 52.0306 38.8471L51.9957 39.041V39.5709H51.8629V38.5652H51.9858V38.5648V38.5648ZM52.9397 38.5994C52.9838 38.6259 53.0286 38.6708 53.0459 38.7149C53.0542 38.7591 53.0542 38.8298 53.0542 38.9178V39.1559C53.0542 39.3149 53.0542 39.4029 53.0718 39.4477L53.0984 39.5709H52.9579L52.9224 39.4477C52.8782 39.4919 52.8251 39.536 52.781 39.5533C52.7352 39.5801 52.6835 39.5953 52.6306 39.5974C52.5422 39.5974 52.4715 39.5709 52.427 39.5091C52.3754 39.4543 52.3473 39.3815 52.3487 39.3063C52.3487 39.2438 52.3663 39.2007 52.3835 39.1559L52.4808 39.0503C52.525 39.0237 52.5864 39.0061 52.6754 38.9978C52.781 38.9795 52.8693 38.953 52.9134 38.9354L52.9224 38.8912C52.9224 38.8205 52.9134 38.7763 52.8782 38.7408C52.8517 38.6967 52.7893 38.6884 52.7192 38.6884C52.6568 38.6884 52.613 38.6967 52.5688 38.7325C52.5422 38.7591 52.5246 38.8032 52.5157 38.8733L52.3659 38.865C52.3835 38.7594 52.427 38.6711 52.4808 38.6263C52.5426 38.5821 52.6305 38.5556 52.7461 38.5556C52.8251 38.5552 52.8955 38.5648 52.9397 38.5994V38.5994ZM52.6571 39.465C52.7044 39.4626 52.7501 39.4474 52.7893 39.4208C52.8341 39.3942 52.8689 39.3584 52.8782 39.3146C52.8958 39.2704 52.9131 39.2179 52.9131 39.1296V39.0672C52.8689 39.0938 52.7893 39.1114 52.6926 39.1296C52.6302 39.1379 52.5864 39.1555 52.5688 39.1731L52.5157 39.2179L52.4981 39.3063C52.4981 39.3504 52.5157 39.3946 52.5422 39.4211C52.5688 39.4477 52.6129 39.465 52.6571 39.465V39.465ZM53.5752 38.5648V38.6963H53.4254V39.2877C53.4254 39.3325 53.4254 39.3767 53.443 39.3939C53.452 39.4022 53.4696 39.4205 53.5137 39.4205H53.5755L53.5845 39.5702L53.4872 39.5792C53.4446 39.5798 53.4025 39.5707 53.364 39.5526C53.3386 39.5359 53.3198 39.5109 53.3109 39.4819C53.2933 39.4377 53.2933 39.3763 53.2933 39.2697V38.6957H53.187V38.5642H53.2933V38.3165L53.4254 38.2102V38.5642H53.5752V38.5648V38.5648ZM53.7083 38.5648H53.8405V39.5706H53.7083V38.5648ZM53.7083 38.1843H53.8405V38.3879H53.7083V38.1843ZM54.5556 38.7853C54.5387 38.7539 54.513 38.728 54.4818 38.7108C54.4505 38.6935 54.415 38.6856 54.3793 38.688C54.3262 38.688 54.2644 38.7146 54.22 38.7853C54.1758 38.8471 54.1499 38.9351 54.1499 39.0675C54.1499 39.2003 54.1758 39.288 54.22 39.3587C54.2648 39.4211 54.3262 39.4477 54.3969 39.4477C54.4587 39.4477 54.5118 39.4211 54.556 39.3587C54.6001 39.288 54.6357 39.2003 54.6357 39.0675C54.6357 38.9354 54.5998 38.8471 54.5556 38.7853ZM54.114 38.688C54.1937 38.599 54.2814 38.5552 54.3969 38.5552C54.5025 38.5552 54.5915 38.5994 54.6615 38.688C54.7323 38.7588 54.7771 38.8909 54.7771 39.0499C54.7771 39.2438 54.7323 39.3767 54.6615 39.465C54.631 39.5064 54.5911 39.5399 54.5451 39.5629C54.4991 39.5859 54.4483 39.5976 54.3969 39.5971C54.2814 39.5971 54.1941 39.553 54.114 39.465C54.0433 39.3767 53.9992 39.2438 53.9992 39.0675C53.9992 38.8912 54.0436 38.7588 54.114 38.688ZM55.059 38.5648V38.7146L55.1739 38.5818C55.218 38.5648 55.2622 38.5552 55.3243 38.5552L55.4392 38.5648L55.5447 38.6432L55.5889 38.7405C55.6065 38.7853 55.6065 38.8643 55.6065 38.9527V39.5706H55.475V38.9616C55.475 38.8909 55.475 38.8295 55.4568 38.8026L55.395 38.7143L55.2977 38.696C55.218 38.696 55.1739 38.7315 55.1297 38.7757C55.0855 38.8198 55.0772 38.9078 55.0772 39.0227V39.5699H54.9444V38.5642H55.059V38.5648V38.5648ZM56.9837 39.4029V39.5709H56.2775V38.1843H56.4279V39.4029H56.9837ZM57.4429 38.5648V38.6963H57.2932V39.2877C57.2932 39.3325 57.2932 39.3767 57.3108 39.3939C57.329 39.4022 57.3373 39.4205 57.3815 39.4205H57.4433L57.4615 39.5702L57.3559 39.5792C57.3159 39.5809 57.2762 39.5717 57.2411 39.5526C57.2055 39.535 57.1962 39.5085 57.1786 39.4819C57.161 39.4377 57.161 39.3763 57.161 39.2697V38.6957H57.0638V38.5642H57.161V38.3165L57.2932 38.2102V38.5642H57.4429V38.5648V38.5648ZM57.8669 38.5552C57.9111 38.5552 57.9559 38.5648 57.9997 38.5818L58.0881 38.688V38.184H58.2378V39.5706H58.1057V39.4384C58.0881 39.4826 58.0439 39.5267 58.0001 39.5533C57.9562 39.5799 57.9293 39.5974 57.8845 39.5974C57.7789 39.5974 57.7082 39.5533 57.6382 39.4477C57.5585 39.3587 57.5319 39.2266 57.5319 39.0675C57.5319 38.9527 57.5495 38.8471 57.5761 38.7763C57.6026 38.6967 57.6468 38.6435 57.691 38.6083C57.7424 38.5721 57.8041 38.5535 57.8669 38.5552V38.5552ZM58.0439 38.7853C57.9997 38.7146 57.9466 38.688 57.8845 38.688C57.8228 38.688 57.7789 38.7146 57.7348 38.7763C57.6906 38.8471 57.6641 38.9354 57.6641 39.0675C57.6641 39.2003 57.6906 39.288 57.7348 39.3587C57.7789 39.4211 57.8231 39.4477 57.8845 39.4477C57.9469 39.4477 58.0001 39.4211 58.0439 39.3587C58.0881 39.3063 58.1057 39.2179 58.1057 39.0851C58.1057 38.9527 58.0881 38.8471 58.0439 38.7853V38.7853ZM58.5031 39.377H58.6621V39.5709H58.5031V39.377Z" fill="black"/>
</g>
<defs>
<clipPath id="clip0_2421_188">
<rect width="64" height="64" fill="white"/>
</clipPath>
</defs>
</svg>
