<svg width="69" height="69" viewBox="0 0 69 69" fill="none" xmlns="http://www.w3.org/2000/svg">
<g clip-path="url(#clip0_2422_195)" filter="url(#filter0_d_2422_195)">
<path fill-rule="evenodd" clip-rule="evenodd" d="M4 0H65V61H4V0Z" fill="black"/>
<path fill-rule="evenodd" clip-rule="evenodd" d="M4.89697 60.0197V0.980469H64.1029V60.02H4.89697V60.0197V60.0197ZM63.6824 59.5994V1.40105H5.31755V59.5994H63.6824V59.5994Z" fill="white"/>
<path fill-rule="evenodd" clip-rule="evenodd" d="M60.3035 16.5374C59.7199 14.3592 58.7037 12.2971 57.3262 10.5211C55.9483 8.74482 54.2084 7.25491 52.3932 6.15204C50.5779 5.04917 48.6871 4.33397 47.3266 3.96529C45.9668 3.59661 45.1576 3.75547 44.3395 3.75547H24.7442C24.2119 3.75547 23.6818 3.75579 22.3207 4.09377C20.9596 4.43175 18.77 5.05772 16.8108 6.12926C14.8519 7.2008 13.1237 8.7176 11.7515 10.5072C10.3762 12.3036 9.36653 14.3522 8.7796 16.5371C8.19549 18.7228 8.04562 21.0018 8.33845 23.2451C8.63428 25.4882 9.3678 27.6513 10.4974 29.6117C11.6249 31.5646 13.1417 33.2928 14.9383 34.6308C16.7348 35.9688 18.8108 36.9169 20.4903 37.5052C22.1698 38.0932 23.4527 38.3211 24.7435 38.3211H44.3386C45.6291 38.3211 46.9124 38.0932 48.5915 37.5052C50.271 36.9169 52.347 35.9691 54.1438 34.6308C55.9401 33.2925 57.4569 31.5646 58.5848 29.6117C59.7143 27.6513 60.4478 25.4882 60.7437 23.2451C61.0374 21.002 60.8879 18.7229 60.3035 16.5374ZM41.2483 25.2376C40.69 27.3158 39.7297 29.2644 38.4217 30.9731C37.1111 32.6802 35.4781 34.1133 33.6152 35.1909C31.7506 36.2654 29.693 36.9631 27.5594 37.2445C25.4256 37.523 23.2579 37.3805 21.1789 36.8248C19.1007 36.2665 17.1522 35.3061 15.4437 33.9979C13.7366 32.6874 12.3036 31.0543 11.2262 29.1914C10.1516 27.3268 9.45387 25.2693 9.17265 23.1356C8.89321 21.0087 9.03689 18.8267 9.59228 16.7548C10.1477 14.6829 11.1138 12.7218 12.4189 11.0195C13.7294 9.3124 15.3624 7.87933 17.2253 6.80174C19.0899 5.7272 21.1473 5.02938 23.2809 4.7479C25.4147 4.46933 27.5824 4.61189 29.6614 5.16753C31.7396 5.72585 33.6883 6.68629 35.3969 7.99449C37.0992 9.29989 38.5422 10.9433 39.6147 12.8009C40.6872 14.6585 41.3885 16.7301 41.6679 18.8571C41.9474 20.984 41.8034 23.1657 41.2483 25.2376Z" fill="white"/>
<path fill-rule="evenodd" clip-rule="evenodd" d="M18.9714 15.0237C18.2402 15.826 17.6636 16.7565 17.2707 17.7684C16.8784 18.7807 16.6767 19.8569 16.6758 20.9425C16.6758 22.0248 16.8793 23.1071 17.2707 24.1166C17.6622 25.1258 18.2416 26.0619 18.9714 26.8613C19.7012 27.6607 20.5806 28.3227 21.5487 28.8069V13.0781C20.5779 13.5637 19.7044 14.2231 18.9714 15.0237ZM31.9046 14.9779C31.1588 14.1748 30.2709 13.5167 29.2855 13.037V28.8481C30.2708 28.3682 31.1588 27.7102 31.9046 26.9072C32.6487 26.1026 33.236 25.166 33.6363 24.1458C34.0359 23.1251 34.2416 22.0387 34.2426 20.9425C34.2426 19.8495 34.0353 18.757 33.6363 17.7393C33.236 16.719 32.6487 15.7825 31.9046 14.9779Z" fill="white"/>
<path fill-rule="evenodd" clip-rule="evenodd" d="M17.748 43.395C17.304 42.8804 16.64 42.6946 16.0043 42.6946H14.2653V48.2457H16.0043C16.6777 48.2457 17.3631 47.9555 17.8037 47.4469C18.2442 46.9381 18.4398 46.2099 18.4268 45.4526C18.4138 44.6953 18.192 43.9092 17.748 43.395ZM16.9742 46.6222C16.728 46.9052 16.3448 47.0653 15.9685 47.0653H15.4717V43.9817H15.9685C16.3239 43.9817 16.6948 44.0842 16.9432 44.3703C17.1916 44.6557 17.3157 45.0931 17.323 45.5137C17.3302 45.9346 17.2204 46.3396 16.9742 46.6222V46.6222ZM20.2873 48.2457V42.6946H19.1065V48.2457H20.2873ZM24.2171 46.189V42.6946H25.3978V48.2457H24.0826L22.3316 44.8042V48.2457H21.1509V42.6946H22.4392L24.2171 46.189V46.189ZM28.9906 47.0526L28.9957 48.2539H26.1174V42.7127H28.9957L28.9906 43.876H27.3077V44.8735H28.9906V46.0545L27.3077 46.0542V47.0526H28.9906V47.0526ZM30.9387 48.2457H29.8118L29.8068 42.6946H31.7343C32.0097 42.6946 32.2866 42.7538 32.5654 42.9279C32.8442 43.1019 33.1252 43.3775 33.2628 43.7522C33.4005 44.1272 33.3951 44.6016 33.3132 44.9671C33.2312 45.3327 33.0726 45.5899 32.8783 45.7985C32.6898 46.0029 32.4589 46.1636 32.2017 46.2694L33.5742 48.2501H32.3397L31.1739 46.5855L30.9384 46.5808V48.2457H30.9387ZM30.9387 45.1963H31.7122C31.8979 45.1963 32.0802 45.0811 32.171 44.8697C32.2622 44.658 32.2619 44.3456 32.1714 44.1323C32.0805 43.9187 31.8998 43.795 31.7122 43.795H30.9387V45.1963V45.1963ZM36.6613 44.3532C36.693 43.9693 36.6161 43.5687 36.461 43.2712C36.3053 42.9737 36.0711 42.7791 35.7607 42.6785C35.4505 42.5785 35.0648 42.5715 34.7255 42.6994C34.3795 42.8317 34.0958 43.0892 33.9306 43.4209C33.7673 43.7526 33.7325 44.1532 33.7771 44.4902C33.822 44.8269 33.9461 45.1004 34.1499 45.3289C34.3537 45.558 34.6366 45.7428 34.9214 45.8567C35.2069 45.9706 35.4945 46.0143 35.6898 46.1418C35.8844 46.2694 35.9869 46.4811 35.9271 46.6903C35.8673 46.8991 35.6439 47.1058 35.3929 47.1463C35.142 47.1871 34.8619 47.0615 34.7005 46.9194C34.5398 46.7776 34.4974 46.6191 34.536 46.4776H33.5948C33.566 46.7884 33.6227 47.1099 33.7562 47.377C33.8888 47.6367 34.0913 47.8542 34.341 48.0049C34.5815 48.1523 34.8518 48.2346 35.1442 48.2517C35.4366 48.2688 35.7499 48.2207 36.004 48.1337C36.2575 48.0463 36.4509 47.9191 36.6332 47.6637C36.8154 47.4083 36.9867 47.0241 36.9898 46.6096C36.9936 46.195 36.8284 45.7498 36.5585 45.4523C36.2879 45.1548 35.9119 45.0045 35.6116 44.8944C35.3113 44.7842 35.0863 44.7146 34.9366 44.5928C34.7876 44.4709 34.7135 44.2972 34.7401 44.1405C34.7667 43.9839 34.8939 43.844 35.0319 43.7776C35.1698 43.7111 35.318 43.7171 35.4262 43.7554C35.5344 43.7934 35.6018 43.8636 35.6449 43.97C35.6888 44.076 35.7072 44.2178 35.6923 44.3529H36.6613V44.3532V44.3532ZM44.4232 44.3532H43.1574C43.0288 44.1852 42.8699 44.0428 42.689 43.9333C42.5127 43.8268 42.3171 43.7562 42.1135 43.7254C41.9098 43.6946 41.7022 43.7043 41.5023 43.7538C41.3005 43.8045 41.1104 43.8939 40.9427 44.0171C40.7704 44.1447 40.6235 44.3033 40.5095 44.4849C40.2766 44.8526 40.188 45.3194 40.2658 45.7558C40.3041 45.9744 40.382 46.1846 40.494 46.3713C40.606 46.558 40.751 46.7207 40.9187 46.8488C41.2481 47.1037 41.6651 47.2174 42.0782 47.165C42.2831 47.1385 42.4807 47.072 42.6599 46.9691C42.8423 46.8636 43.0032 46.7245 43.1339 46.5593H44.4083C44.2784 46.8855 44.0913 47.1859 43.8558 47.4463C43.6264 47.6998 43.3515 47.908 43.0453 48.0602C42.4432 48.3596 41.749 48.4161 41.1064 48.2178C40.7836 48.1171 40.4827 47.9566 40.2193 47.7447C39.9484 47.526 39.7196 47.2598 39.5443 46.959C39.1883 46.3542 39.0535 45.5953 39.1845 44.8877C39.2481 44.5385 39.3741 44.2036 39.5566 43.8991C39.7358 43.6009 39.9676 43.3377 40.2408 43.1225C40.7921 42.6896 41.4728 42.5009 42.1181 42.5623C42.4482 42.5927 42.7732 42.6867 43.0738 42.8396C43.3744 42.9924 43.6491 43.2044 43.8798 43.463C44.1105 43.7215 44.296 44.026 44.4232 44.3532V44.3532ZM47.5812 47.0431V48.2539H44.9995V42.6589H46.0482L46.0552 47.0526L47.5812 47.0431ZM48.0657 46.1286V42.7665H49.1144L49.1211 46.2722C49.1211 46.5631 49.2872 46.8662 49.5186 47.0112C49.7502 47.1561 50.0569 47.1425 50.2961 46.9938C50.5354 46.8453 50.748 46.5653 50.7486 46.2722L50.755 42.7665H51.8037V46.0751C51.8037 46.7941 51.6002 47.6007 50.9692 48.0074C50.3382 48.4137 49.3844 48.4131 48.7787 48.0096C48.1726 47.6061 48.0657 46.8162 48.0657 46.1286V46.1286ZM55.7469 46.1488C55.6529 45.689 55.3519 45.3567 54.9778 45.214C55.2016 45.0798 55.3605 44.8513 55.4222 44.4943C55.4832 44.1374 55.4475 43.6516 55.2146 43.2908C54.9823 42.9304 54.5538 42.6589 54.1174 42.6589H52.5034V48.1998H54.1174C54.6051 48.1998 55.1101 47.9988 55.419 47.5973C55.7279 47.1957 55.8412 46.6083 55.7469 46.1488V46.1488ZM53.5854 43.8209H54.0459C54.1744 43.8209 54.3183 43.8465 54.3921 43.9883C54.4655 44.1298 54.4655 44.3586 54.3914 44.4985C54.3174 44.6383 54.1737 44.657 54.0459 44.657H53.5854V43.8209V43.8209ZM54.6244 46.7501C54.5354 46.9213 54.363 46.9453 54.2092 46.9453L53.586 46.945V45.9203H54.2092C54.3642 45.9203 54.5367 45.9532 54.625 46.1263C54.7133 46.2994 54.7133 46.5789 54.6244 46.7501V46.7501ZM10.5507 55.2395V49.6888H9.36963V55.2395H10.5507ZM14.5881 53.1831V49.6888H15.7688V55.2395H14.4533L12.7026 51.798V55.2395H11.5216V49.6888H12.8099L14.5881 53.1831V53.1831ZM16.1388 50.7283V49.6793H18.936V50.7283H18.1356V55.2395H16.9549V50.7283H16.1388ZM22.2664 54.0461L22.2712 55.2474H19.3933V49.7062H22.2712L22.2664 50.8695H20.5832V51.8673H22.2664V53.0483H20.5832V54.0461H22.2664V54.0461ZM24.1877 55.2395H23.0607L23.0554 49.6884H24.9832C25.2586 49.6884 25.5355 49.7476 25.8143 49.9217C26.0931 50.0957 26.3741 50.3714 26.5118 50.7464C26.6494 51.1211 26.644 51.5954 26.5621 51.961C26.4801 52.3265 26.3216 52.5838 26.1273 52.7923C25.9388 52.9968 25.7079 53.1575 25.4507 53.2632L26.8232 55.2439H25.5886L24.4228 53.5793L24.1873 53.5746V55.2395H24.1877V55.2395ZM24.1877 52.1901H24.9611C25.1469 52.1901 25.3291 52.0749 25.42 51.8635C25.5108 51.6518 25.5108 51.3394 25.42 51.1261C25.3295 50.9125 25.1484 50.7888 24.9608 50.7888H24.1873V52.1901H24.1877V52.1901ZM30.1881 53.1831V49.6888H31.3688V55.2395H30.0539L28.3026 51.798V55.2395H27.1219V49.6888H28.4105L30.1881 53.1831ZM33.517 53.7142L33.0366 55.2392H31.8559L33.604 49.6884H34.8768L36.6246 55.2392H35.4442L34.9638 53.7142H33.517ZM34.2404 51.4176L33.873 52.5847H34.6078L34.2404 51.4176ZM36.8227 50.7283V49.6793H39.6203V50.7283H38.8196V55.2395H37.6386V50.7283H36.8227ZM41.4285 55.2395V49.6888H40.2475V55.2395H41.4285ZM47.5521 51.4727C47.46 51.1764 47.322 50.8919 47.1435 50.6372C46.965 50.3824 46.7467 50.1578 46.5043 49.9774C45.7508 49.4277 44.8941 49.3049 44.0583 49.5707C43.7783 49.6635 43.5152 49.8008 43.2789 49.9774C43.032 50.1619 42.8161 50.3847 42.6393 50.6372C42.2828 51.1503 42.0924 51.7605 42.094 52.3853C42.094 52.6951 42.1399 53.0072 42.2314 53.3066C42.3233 53.6065 42.4609 53.8906 42.6393 54.1487C42.8156 54.402 43.031 54.6257 43.2773 54.8116C44.0302 55.3639 44.8887 55.4873 45.7261 55.2202C46.0064 55.1269 46.2698 54.9889 46.5062 54.8116C46.7523 54.6257 46.9674 54.4019 47.1435 54.1487C47.51 53.6233 47.6907 52.9901 47.6888 52.3853C47.6888 52.0761 47.6435 51.7685 47.5521 51.4727V51.4727ZM46.2387 53.448C46.1333 53.5997 46.0046 53.7338 45.8574 53.8455C45.7162 53.9521 45.5585 54.035 45.3906 54.0907C44.89 54.2512 44.3764 54.1768 43.9264 53.8455C43.7789 53.7342 43.6501 53.6 43.545 53.448C43.4379 53.2932 43.3556 53.1227 43.301 52.9426C43.1384 52.3869 43.214 51.8268 43.545 51.341C43.652 51.1882 43.7824 51.0533 43.927 50.9448C44.0684 50.8388 44.226 50.7564 44.3938 50.7008C44.8931 50.5413 45.4055 50.615 45.8561 50.9448C46.0008 51.0533 46.1318 51.1882 46.2387 51.341C46.3451 51.4935 46.428 51.6641 46.4827 51.842C46.6479 52.3948 46.5644 52.9689 46.2387 53.448V53.448ZM51.3294 53.1831V49.6888H52.5104V55.2395H51.1952L49.4442 51.798V55.2395H48.2628V49.6888H49.5515L51.3294 53.1831ZM54.7386 53.7142L54.2582 55.2392H53.0778L54.8256 49.6884H56.0981L57.8466 55.2392H56.6655L56.1852 53.7142H54.7386ZM55.4624 51.4176L55.0946 52.5847H55.8294L55.4624 51.4176ZM60.9492 55.2474V54.1983H59.7185L59.7118 49.6793H58.5289V55.2474H60.9492Z" fill="white"/>
</g>
<defs>
<filter id="filter0_d_2422_195" x="0" y="0" width="69" height="69" filterUnits="userSpaceOnUse" color-interpolation-filters="sRGB">
<feFlood flood-opacity="0" result="BackgroundImageFix"/>
<feColorMatrix in="SourceAlpha" type="matrix" values="0 0 0 0 0 0 0 0 0 0 0 0 0 0 0 0 0 0 127 0" result="hardAlpha"/>
<feOffset dy="4"/>
<feGaussianBlur stdDeviation="2"/>
<feComposite in2="hardAlpha" operator="out"/>
<feColorMatrix type="matrix" values="0 0 0 0 0 0 0 0 0 0 0 0 0 0 0 0 0 0 0.25 0"/>
<feBlend mode="normal" in2="BackgroundImageFix" result="effect1_dropShadow_2422_195"/>
<feBlend mode="normal" in="SourceGraphic" in2="effect1_dropShadow_2422_195" result="shape"/>
</filter>
<clipPath id="clip0_2422_195">
<rect width="61" height="61" fill="white" transform="translate(4)"/>
</clipPath>
</defs>
</svg>
