<svg width="68" height="18" viewBox="0 0 68 18" fill="none" xmlns="http://www.w3.org/2000/svg">
<path fill-rule="evenodd" clip-rule="evenodd" d="M3.31017 0.677699H0.264648V11.2777H3.27062C4.89262 11.2777 6.03935 10.9214 7.06783 10.0515C8.25448 9.06295 9.00578 7.55958 9.00578 5.97751C9.00578 2.85329 6.67202 0.677699 3.31017 0.677699V0.677699ZM5.72301 8.66715C5.05079 9.22112 4.21964 9.49792 2.8752 9.49792H2.32161V2.49703H2.8752C4.21964 2.49703 5.01087 2.73428 5.72301 3.32741C6.43477 3.96009 6.87012 4.94941 6.87012 5.97751C6.86973 7.00599 6.43477 8.03447 5.72301 8.66715ZM9.95518 11.2781H12.0118V0.677699H9.95518V11.2781ZM17.0743 4.7517C15.8086 4.27719 15.4527 4.0004 15.4527 3.40688C15.4527 2.73466 16.1249 2.26016 16.9952 2.26016C17.6279 2.26016 18.1423 2.49741 18.6564 3.09054L19.764 1.70656C18.8541 0.915336 17.7865 0.519916 16.6393 0.519916C14.7409 0.519916 13.317 1.82519 13.317 3.56543C13.317 5.02888 13.9893 5.74102 15.9276 6.45278C16.7584 6.72958 17.1538 6.92729 17.3515 7.04592C17.7865 7.3231 17.9842 7.71813 17.9842 8.15348C17.9842 9.02379 17.312 9.65647 16.3626 9.65647C15.4132 9.65647 14.5828 9.14242 14.1079 8.23257L12.803 9.53784C13.7524 10.9218 14.8991 11.5549 16.4812 11.5549C18.6168 11.5549 20.1202 10.131 20.1202 8.0744C20.1198 6.37332 19.4081 5.62163 17.0743 4.7517V4.7517ZM20.7529 5.97751C20.7529 9.10211 23.2053 11.515 26.369 11.515C27.2394 11.515 28.0302 11.3564 28.9401 10.9214V8.46905C28.1093 9.29944 27.3975 9.6557 26.4481 9.6557C24.3915 9.6557 22.8886 8.11317 22.8886 5.97712C22.8886 3.96009 24.4311 2.33847 26.369 2.33847C27.358 2.33847 28.1093 2.69435 28.9401 3.52512V1.11228C28.0697 0.63739 27.3184 0.440063 26.4086 0.440063C23.284 0.440447 20.7529 2.93237 20.7529 5.97751V5.97751Z" fill="white"/>
<path fill-rule="evenodd" clip-rule="evenodd" d="M35.3874 0.44043C32.2624 0.44043 29.731 2.89282 29.731 5.89841C29.731 9.14202 32.1438 11.5149 35.3874 11.5149C38.5508 11.5149 41.0431 9.10209 41.0431 5.97749C41.0435 2.89281 38.5907 0.44043 35.3874 0.44043Z" fill="#DB8135"/>
<path fill-rule="evenodd" clip-rule="evenodd" d="M35.3874 0.44043C32.2624 0.44043 29.731 2.89282 29.731 5.89841C29.731 9.14202 32.1438 11.5149 35.3874 11.5149C38.5508 11.5149 41.0431 9.10209 41.0431 5.97749C41.0435 2.89281 38.5907 0.44043 35.3874 0.44043ZM35.3874 5.97749H41.0431H35.3874Z" fill="#DB8135"/>
<path fill-rule="evenodd" clip-rule="evenodd" d="M35.3874 5.97749H41.0431C41.0431 2.89243 38.5903 0.44043 35.3874 0.44043C32.2624 0.44043 29.731 2.89282 29.731 5.89841C29.731 9.14202 32.1438 11.5149 35.3874 11.5149C38.5508 11.5149 41.0431 9.10209 41.0431 5.97749H35.3874Z" fill="#DB8135"/>
<path fill-rule="evenodd" clip-rule="evenodd" d="M35.3874 5.97749H41.0431C41.0431 2.89243 38.5903 0.44043 35.3874 0.44043C32.2624 0.44043 29.731 2.89282 29.731 5.89841C29.731 9.14202 32.1438 11.5149 35.3874 11.5149C38.5508 11.5149 41.0431 9.10209 41.0431 5.97749H35.3874Z" fill="#DB8137"/>
<path fill-rule="evenodd" clip-rule="evenodd" d="M35.3874 5.97749H41.0431C41.0431 2.89243 38.5903 0.44043 35.3874 0.44043C32.2624 0.44043 29.731 2.89282 29.731 5.89841C29.731 9.14202 32.1438 11.5149 35.3874 11.5149C38.5508 11.5149 41.0431 9.10209 41.0431 5.97749H35.3874Z" fill="#DC8337"/>
<path fill-rule="evenodd" clip-rule="evenodd" d="M35.3874 5.97749H41.0431C41.0431 2.89243 38.5903 0.44043 35.3874 0.44043C32.2624 0.44043 29.731 2.89282 29.731 5.89841C29.731 9.14202 32.1438 11.5149 35.3874 11.5149C38.5508 11.5149 41.0431 9.10209 41.0431 5.97749H35.3874Z" fill="#DC8539"/>
<path fill-rule="evenodd" clip-rule="evenodd" d="M35.3874 5.97749H41.0431C41.0431 2.89243 38.5903 0.44043 35.3874 0.44043C32.2624 0.44043 29.731 2.89282 29.731 5.89841C29.731 9.14202 32.1438 11.5149 35.3874 11.5149C38.5508 11.5149 41.0431 9.10209 41.0431 5.97749H35.3874Z" fill="#DC853A"/>
<path fill-rule="evenodd" clip-rule="evenodd" d="M35.3874 5.97749H41.0431C41.0431 2.89243 38.5903 0.44043 35.3874 0.44043C32.2624 0.44043 29.731 2.89282 29.731 5.89841C29.731 9.14202 32.1438 11.5149 35.3874 11.5149C38.5508 11.5149 41.0431 9.10209 41.0431 5.97749H35.3874Z" fill="#DC853C"/>
<path fill-rule="evenodd" clip-rule="evenodd" d="M35.3874 5.97749H41.0431C41.0431 2.89243 38.5903 0.44043 35.3874 0.44043C32.2624 0.44043 29.731 2.89282 29.731 5.89841C29.731 9.14202 32.1438 11.5149 35.3874 11.5149C38.5508 11.5149 41.0431 9.10209 41.0431 5.97749H35.3874Z" fill="#DD873E"/>
<path fill-rule="evenodd" clip-rule="evenodd" d="M35.3874 5.97749H41.0431C41.0431 2.89243 38.5903 0.44043 35.3874 0.44043C32.2624 0.44043 29.731 2.89282 29.731 5.89841C29.731 9.14202 32.1438 11.5149 35.3874 11.5149C38.5508 11.5149 41.0431 9.10209 41.0431 5.97749H35.3874Z" fill="#DD873E"/>
<path fill-rule="evenodd" clip-rule="evenodd" d="M35.3874 5.97749H41.0431C41.0431 2.89243 38.5903 0.44043 35.3874 0.44043C32.2624 0.44043 29.731 2.89282 29.731 5.89841C29.731 9.14202 32.1438 11.5149 35.3874 11.5149C38.5508 11.5149 41.0431 9.10209 41.0431 5.97749H35.3874Z" fill="#DD883F"/>
<path fill-rule="evenodd" clip-rule="evenodd" d="M35.3874 5.97749H41.0431C41.0431 2.89243 38.5903 0.44043 35.3874 0.44043C32.2624 0.44043 29.731 2.89282 29.731 5.89841C29.731 9.14202 32.1438 11.5149 35.3874 11.5149C38.5508 11.5149 41.0431 9.10209 41.0431 5.97749H35.3874Z" fill="#DD8841"/>
<path fill-rule="evenodd" clip-rule="evenodd" d="M35.3874 5.97749H41.0431C41.0431 2.89243 38.5903 0.44043 35.3874 0.44043C32.2624 0.44043 29.731 2.89282 29.731 5.89841C29.731 9.14202 32.1438 11.5149 35.3874 11.5149C38.5508 11.5149 41.0431 9.10209 41.0431 5.97749H35.3874Z" fill="#DE8A41"/>
<path fill-rule="evenodd" clip-rule="evenodd" d="M35.3874 5.97749H41.0431C41.0431 2.89243 38.5903 0.44043 35.3874 0.44043C32.2624 0.44043 29.731 2.89282 29.731 5.89841C29.731 9.14202 32.1438 11.5149 35.3874 11.5149C38.5508 11.5149 41.0431 9.10209 41.0431 5.97749H35.3874Z" fill="#DE8A43"/>
<path fill-rule="evenodd" clip-rule="evenodd" d="M35.3874 5.97749H41.0431C41.0431 2.89243 38.5903 0.44043 35.3874 0.44043C32.2624 0.44043 29.731 2.89282 29.731 5.89841C29.731 9.14202 32.1438 11.5149 35.3874 11.5149C38.5508 11.5149 41.0431 9.10209 41.0431 5.97749H35.3874Z" fill="#DE8A44"/>
<path fill-rule="evenodd" clip-rule="evenodd" d="M35.3874 5.97749H41.0431C41.0431 2.89243 38.5903 0.44043 35.3874 0.44043C32.2624 0.44043 29.731 2.89282 29.731 5.89841C29.731 9.14202 32.1438 11.5149 35.3874 11.5149C38.5508 11.5149 41.0431 9.10209 41.0431 5.97749H35.3874Z" fill="#DE8C46"/>
<path fill-rule="evenodd" clip-rule="evenodd" d="M35.3876 5.97751H41.0433H35.3876ZM41.0437 5.97751C41.0437 5.92952 41.0429 5.88153 41.0414 5.83354V5.83163C41.0404 5.78451 41.0386 5.73741 41.036 5.69035V5.68651C41.0337 5.6404 41.0307 5.59433 41.0272 5.5483C41.0272 5.54638 41.0272 5.54446 41.0264 5.54255C41.0233 5.49733 41.0196 5.45215 41.0153 5.40703C41.0145 5.40434 41.0145 5.40204 41.0145 5.39935C41.01 5.35511 41.0048 5.31096 40.9988 5.2669V5.26575C40.9934 5.22373 40.9876 5.18175 40.9815 5.13983C40.9807 5.1356 40.98 5.13138 40.98 5.12716C40.9731 5.0857 40.9665 5.04462 40.9589 5.00316L40.9565 4.98934L40.9446 4.92215L40.9289 4.84269L40.9208 4.80468C40.9139 4.77243 40.9074 4.74018 40.8997 4.70832C40.8967 4.69335 40.8921 4.67876 40.8894 4.66379L40.8667 4.57395L40.8441 4.48949L40.8329 4.44803C40.8249 4.41847 40.8157 4.38929 40.8076 4.36012L40.7942 4.31443C40.0939 2.05592 37.9882 0.440063 35.388 0.440063C33.0992 0.440063 31.1293 1.75609 30.2387 3.64106C29.9088 4.36224 29.7361 5.14532 29.7319 5.93835C29.7362 6.62362 29.8486 7.26973 30.0533 7.8621L30.0709 7.91162L30.0786 7.93235C30.2969 8.52439 30.6129 9.07564 31.0134 9.56318C32.0308 10.7771 33.5802 11.5146 35.388 11.5146C37.9582 11.5146 40.0847 9.92213 40.7926 7.64865L40.8287 7.52657V7.52618C40.9319 7.16279 40.9983 6.78993 41.0268 6.41324L41.0276 6.41247C41.0306 6.36487 41.0345 6.31688 41.0364 6.26889V6.26851C41.0411 6.17158 41.0436 6.07455 41.0437 5.97751V5.97751Z" fill="#DF8E47"/>
<path fill-rule="evenodd" clip-rule="evenodd" d="M35.3874 5.97749H41.0036C41.0036 3.82609 39.7716 1.96376 37.9803 1.03318C37.2094 0.65388 36.3314 0.44043 35.3874 0.44043C34.1724 0.44043 33.0487 0.811664 32.1269 1.4405C30.7038 2.45132 29.7705 4.1048 29.7705 5.97749C29.7705 8.03752 30.9 9.85071 32.5684 10.8281C33.3873 11.2692 34.3436 11.5149 35.3874 11.5149C36.7034 11.5149 37.9024 11.0972 38.8545 10.3855C40.1597 9.35355 41.0036 7.75766 41.0036 5.97749H35.3874Z" fill="#DF8E48"/>
<path fill-rule="evenodd" clip-rule="evenodd" d="M35.3874 5.97749H40.9241C40.9241 2.93197 38.4326 0.44043 35.3874 0.44043C35.3395 0.44043 35.2922 0.441196 35.245 0.442348H35.2412C32.2628 0.520281 29.8496 2.98111 29.8496 5.97749C29.8482 7.13697 30.208 8.26809 30.879 9.21368C31.55 10.1593 32.4989 10.8724 33.5938 11.2539C34.152 11.424 34.7536 11.5153 35.3871 11.5153C36.1602 11.5153 36.8927 11.3706 37.5592 11.1076C38.5596 10.6745 39.4114 9.95793 40.0093 9.04634C40.6072 8.13475 40.9251 7.06805 40.9237 5.97787H35.3874V5.97749Z" fill="#DF8E4A"/>
<path fill-rule="evenodd" clip-rule="evenodd" d="M35.3875 5.97752H40.885C40.885 2.97154 38.4322 0.479614 35.3875 0.479614C32.3416 0.479614 29.8892 2.97154 29.8892 5.97752C29.8876 6.69999 30.0288 7.41565 30.3045 8.08342C30.5803 8.75119 30.9852 9.35791 31.4961 9.86876C32.007 10.3796 32.6137 10.7845 33.2815 11.0602C33.9493 11.3359 34.665 11.477 35.3875 11.4754C36.1099 11.4769 36.8255 11.3358 37.4932 11.06C38.1609 10.7842 38.7675 10.3793 39.2783 9.86849C39.7891 9.35765 40.194 8.75096 40.4697 8.08324C40.7454 7.41552 40.8865 6.69992 40.885 5.97752H35.3875V5.97752Z" fill="#DF904A"/>
<path fill-rule="evenodd" clip-rule="evenodd" d="M35.3875 5.97753H40.8454C40.8454 2.97156 38.3927 0.558716 35.3875 0.558716C32.3811 0.558716 29.9287 2.97156 29.9287 5.97753C29.9287 8.9839 32.3811 11.4359 35.3875 11.4359C38.3927 11.4359 40.8454 8.98351 40.8454 5.97753H35.3875Z" fill="#E0914C"/>
<path fill-rule="evenodd" clip-rule="evenodd" d="M35.3875 5.97752H40.8055C40.8055 3.01109 38.3535 0.598633 35.3875 0.598633C32.4206 0.598633 29.9683 3.01109 29.9683 5.97752C29.9683 8.98388 32.4206 11.3963 35.3875 11.3963C38.3539 11.3963 40.8055 8.98388 40.8055 5.97752H35.3875Z" fill="#E0914E"/>
<path fill-rule="evenodd" clip-rule="evenodd" d="M35.3875 5.97755H40.7268C40.7268 3.05066 38.3535 0.637817 35.3875 0.637817C32.4207 0.637817 30.0474 3.05066 30.0474 5.97755C30.0474 8.94399 32.4207 11.3564 35.3875 11.3564C38.3539 11.3564 40.7268 8.94399 40.7268 5.97755H35.3875Z" fill="#DF924F"/>
<path fill-rule="evenodd" clip-rule="evenodd" d="M35.3875 5.97754H40.6873C40.6873 3.05065 38.314 0.677734 35.3875 0.677734C32.4602 0.677734 30.0869 3.05104 30.0869 5.97754C30.0869 8.90405 32.4602 11.2777 35.3875 11.2777C38.314 11.2777 40.6873 8.90405 40.6873 5.97754H35.3875Z" fill="#E09351"/>
<path fill-rule="evenodd" clip-rule="evenodd" d="M35.3875 5.97756H40.6474C40.6474 3.09021 38.2741 0.756836 35.3875 0.756836C32.4998 0.756836 30.1265 3.09021 30.1265 5.97756C30.1265 8.90445 32.4998 11.2382 35.3875 11.2382C38.2745 11.2382 40.6474 8.90445 40.6474 5.97756H35.3875Z" fill="#E09552"/>
<path fill-rule="evenodd" clip-rule="evenodd" d="M35.3875 5.97757H40.5687C40.5687 3.13014 38.2741 0.796387 35.3875 0.796387C32.4998 0.796387 30.166 3.13014 30.166 5.97757C30.166 8.86492 32.4998 11.1983 35.3875 11.1983C38.2745 11.1983 40.5687 8.86492 40.5687 5.97757H35.3875Z" fill="#E09554"/>
<path fill-rule="evenodd" clip-rule="evenodd" d="M35.3871 5.97759H40.5288C40.5301 5.30202 40.3979 4.63286 40.14 4.00847C39.882 3.38409 39.5034 2.81678 39.0257 2.33908C38.548 1.86138 37.9807 1.4827 37.3563 1.22476C36.7319 0.966812 36.0627 0.834683 35.3871 0.835948C34.7115 0.834582 34.0423 0.966639 33.4179 1.22454C32.7934 1.48245 32.226 1.86112 31.7483 2.33883C31.2705 2.81654 30.8918 3.38389 30.6339 4.00832C30.3759 4.63275 30.2438 5.30198 30.2451 5.97759C30.2451 8.82539 32.539 11.1592 35.3871 11.1592C38.2342 11.1592 40.5288 8.82539 40.5288 5.97759H35.3871Z" fill="#E09555"/>
<path fill-rule="evenodd" clip-rule="evenodd" d="M35.3875 5.97746H40.4892C40.4892 3.1692 38.1954 0.875366 35.3875 0.875366C32.5789 0.875366 30.2847 3.1692 30.2847 5.97746C30.2847 8.82527 32.5789 11.0799 35.3875 11.0799C36.058 11.0816 36.7222 10.9507 37.342 10.6948C37.9617 10.439 38.5248 10.0632 38.9989 9.58903C39.4729 9.11489 39.8487 8.55175 40.1044 7.93196C40.3602 7.31217 40.491 6.64795 40.4892 5.97746H35.3875Z" fill="#E19756"/>
<path fill-rule="evenodd" clip-rule="evenodd" d="M35.3872 5.97748H40.4494C40.4494 3.20914 38.1954 0.954468 35.3872 0.954468C32.5785 0.954468 30.3242 3.20914 30.3242 5.97748C30.3222 6.64292 30.4517 7.3022 30.7054 7.91738C30.9591 8.53256 31.332 9.0915 31.8025 9.56202C32.2731 10.0325 32.8321 10.4054 33.4473 10.659C34.0625 10.9127 34.7217 11.0422 35.3872 11.04C36.0526 11.0421 36.7118 10.9125 37.3269 10.6588C37.942 10.4051 38.5009 10.0323 38.9713 9.56175C39.4418 9.09124 39.8146 8.53234 40.0683 7.9172C40.3219 7.30207 40.4514 6.64286 40.4494 5.97748H35.3872Z" fill="#E19757"/>
<path fill-rule="evenodd" clip-rule="evenodd" d="M35.3872 5.97749H40.3703C40.3703 3.20915 38.1551 0.994019 35.3872 0.994019C32.6181 0.994019 30.3638 3.20915 30.3638 5.97749C30.3638 8.74621 32.6184 11.0005 35.3872 11.0005C38.1555 11.0005 40.3703 8.74583 40.3703 5.97749H35.3872V5.97749Z" fill="#E29959"/>
<path fill-rule="evenodd" clip-rule="evenodd" d="M35.3872 5.9775H40.3307C40.3307 3.24832 38.1156 1.03357 35.3872 1.03357C32.6576 1.03357 30.4429 3.24832 30.4429 5.9775C30.4429 8.70668 32.658 10.961 35.3872 10.961C38.1156 10.961 40.3307 8.70668 40.3307 5.9775H35.3872Z" fill="#E2995B"/>
<path fill-rule="evenodd" clip-rule="evenodd" d="M35.3872 5.9775H40.2908C40.2908 3.28825 38.0757 1.07312 35.3872 1.07312C32.6972 1.07312 30.4824 3.28825 30.4824 5.9775C30.4824 8.70669 32.6976 10.8819 35.3872 10.8819C38.0761 10.8819 40.2908 8.70669 40.2908 5.9775H35.3872Z" fill="#E29B5B"/>
<path fill-rule="evenodd" clip-rule="evenodd" d="M35.3872 5.97752H40.252C40.252 3.32743 38.0761 1.15222 35.3872 1.15222C32.6972 1.15222 30.522 3.32743 30.522 5.97752C30.522 8.66716 32.6976 10.8424 35.3872 10.8424C38.0761 10.8424 40.252 8.66678 40.252 5.97752H35.3872Z" fill="#E29B5D"/>
<path fill-rule="evenodd" clip-rule="evenodd" d="M35.3872 5.97754H40.1726C40.1738 5.34876 40.0509 4.72592 39.8108 4.14476C39.5708 3.5636 39.2183 3.03556 38.7737 2.59093C38.3291 2.14629 37.8011 1.79381 37.22 1.55371C36.6388 1.31361 36.016 1.19062 35.3872 1.19178C32.7367 1.19178 30.6011 3.32744 30.6011 5.97754C30.6011 8.62764 32.7367 10.8032 35.3872 10.8032C38.0369 10.8032 40.1726 8.62764 40.1726 5.97754H35.3872Z" fill="#E39D5F"/>
<path fill-rule="evenodd" clip-rule="evenodd" d="M35.3872 5.97754H40.1327C40.1327 3.36699 37.9974 1.23132 35.3872 1.23132C32.7763 1.23132 30.6406 3.36699 30.6406 5.97754C30.6406 8.62764 32.7763 10.7633 35.3872 10.7633C37.9974 10.7633 40.1327 8.62764 40.1327 5.97754H35.3872Z" fill="#E39D61"/>
<path fill-rule="evenodd" clip-rule="evenodd" d="M35.3872 5.97755H40.0939C40.0939 3.40654 37.9974 1.27087 35.3872 1.27087C32.7763 1.27087 30.6802 3.40654 30.6802 5.97755C30.6802 8.5881 32.7763 10.6842 35.3872 10.6842C37.9974 10.6842 40.0939 8.5881 40.0939 5.97755H35.3872Z" fill="#E39F63"/>
<path fill-rule="evenodd" clip-rule="evenodd" d="M35.3872 5.97757H40.054C40.054 3.40656 37.9575 1.34998 35.3872 1.34998C32.8158 1.34998 30.7197 3.40656 30.7197 5.97757C30.7197 8.54858 32.8158 10.6451 35.3872 10.6451C37.9575 10.6451 40.054 8.54858 40.054 5.97757H35.3872Z" fill="#E39F63"/>
<path fill-rule="evenodd" clip-rule="evenodd" d="M35.3873 5.97757H39.9745C39.9745 3.44649 37.9187 1.38953 35.3873 1.38953C32.8554 1.38953 30.7988 3.4461 30.7988 5.97757C30.7988 8.54859 32.8554 10.6052 35.3873 10.6052C37.9187 10.6052 39.9745 8.54859 39.9745 5.97757H35.3873Z" fill="#E39F64"/>
<path fill-rule="evenodd" clip-rule="evenodd" d="M35.3873 5.97746H39.9358C39.9358 3.48592 37.9187 1.42896 35.3873 1.42896C32.8554 1.42896 30.8384 3.48592 30.8384 5.97746C30.8384 8.50893 32.8554 10.5659 35.3873 10.5659C37.9187 10.5659 39.9358 8.50893 39.9358 5.97746H35.3873Z" fill="#E4A166"/>
<path fill-rule="evenodd" clip-rule="evenodd" d="M35.3873 5.97747H39.8959C39.8959 3.48593 37.8788 1.46851 35.3873 1.46851C32.895 1.46851 30.8779 3.48554 30.8779 5.97747C30.8779 8.4694 32.895 10.4868 35.3873 10.4868C37.8788 10.4868 39.8959 8.4694 39.8959 5.97747H35.3873Z" fill="#E4A367"/>
<path fill-rule="evenodd" clip-rule="evenodd" d="M35.3873 5.97749H39.8563C39.8563 3.52548 37.8393 1.54761 35.3873 1.54761C32.9345 1.54761 30.9175 3.5251 30.9175 5.97749C30.9175 8.46941 32.9345 10.4469 35.3873 10.4469C37.8393 10.4469 39.8563 8.46941 39.8563 5.97749H35.3873Z" fill="#E4A369"/>
<path fill-rule="evenodd" clip-rule="evenodd" d="M35.3873 5.97749H39.7776C39.7776 3.56504 37.8393 1.58716 35.3873 1.58716C32.9345 1.58716 30.9966 3.56504 30.9966 5.97749C30.9966 8.42988 32.9345 10.4074 35.3873 10.4074C37.8393 10.4074 39.7776 8.42988 39.7776 5.97749H35.3873Z" fill="#E4A36A"/>
<path fill-rule="evenodd" clip-rule="evenodd" d="M35.3873 5.97752H39.7377C39.7394 5.40575 39.6279 4.83929 39.4099 4.31072C39.1918 3.78215 38.8715 3.3019 38.4672 2.89757C38.0629 2.49324 37.5827 2.17282 37.0541 1.95472C36.5256 1.73663 35.9591 1.62516 35.3873 1.62673C34.8155 1.62501 34.2489 1.73636 33.7203 1.9544C33.1916 2.17243 32.7113 2.49284 32.3069 2.89718C31.9025 3.30153 31.582 3.78184 31.364 4.31048C31.1459 4.83912 31.0345 5.40567 31.0362 5.97752C31.0362 8.39037 32.9741 10.3679 35.3873 10.3679C37.7994 10.3679 39.7377 8.39037 39.7377 5.97752H35.3873Z" fill="#E5A56C"/>
<path fill-rule="evenodd" clip-rule="evenodd" d="M35.3873 5.97749H39.6982C39.6982 3.60458 37.7599 1.66663 35.3873 1.66663C33.0136 1.66663 31.0757 3.60458 31.0757 5.97749C31.0757 8.35079 33.0136 10.2887 35.3873 10.2887C37.7599 10.2887 39.6982 8.35079 39.6982 5.97749H35.3873Z" fill="#E5A56C"/>
<path fill-rule="evenodd" clip-rule="evenodd" d="M35.3873 5.97751H39.6583C39.6583 3.64414 37.7207 1.74573 35.3873 1.74573C33.0532 1.74573 31.1152 3.64414 31.1152 5.97751C31.1152 8.35081 33.0532 10.2488 35.3873 10.2488C37.7207 10.2488 39.6583 8.35081 39.6583 5.97751H35.3873Z" fill="#E5A76E"/>
<path fill-rule="evenodd" clip-rule="evenodd" d="M35.3875 5.97752H39.5797C39.5797 3.68369 37.7208 1.78528 35.3875 1.78528C33.0533 1.78528 31.1948 3.68369 31.1948 5.97752C31.1948 8.31128 33.0537 10.2097 35.3875 10.2097C37.7208 10.2097 39.5797 8.31128 39.5797 5.97752H35.3875V5.97752Z" fill="#E5A770"/>
<path fill-rule="evenodd" clip-rule="evenodd" d="M35.3874 5.97753H39.5397C39.5397 3.68369 37.6808 1.82483 35.3874 1.82483C33.0928 1.82483 31.2339 3.68369 31.2339 5.97753C31.2339 8.27174 33.0928 10.1306 35.3874 10.1306C37.6812 10.1306 39.5397 8.27174 39.5397 5.97753H35.3874Z" fill="#E6A970"/>
<path fill-rule="evenodd" clip-rule="evenodd" d="M35.3874 5.97754H39.5001C39.5001 3.72325 37.6413 1.86438 35.3874 1.86438C33.1323 1.86438 31.2734 3.72325 31.2734 5.97754C31.2734 8.27175 33.1323 10.0907 35.3874 10.0907C37.6413 10.0907 39.5001 8.27175 39.5001 5.97754H35.3874Z" fill="#E6A972"/>
<path fill-rule="evenodd" clip-rule="evenodd" d="M35.3874 5.97755H39.461C39.461 3.76281 37.6413 1.94348 35.3874 1.94348C33.1323 1.94348 31.313 3.76281 31.313 5.97755C31.3122 6.5128 31.4171 7.04294 31.6216 7.53759C31.8261 8.03224 32.1262 8.48167 32.5047 8.86013C32.8832 9.23859 33.3326 9.53865 33.8273 9.7431C34.322 9.94754 34.8521 10.0524 35.3874 10.0516C35.9226 10.0523 36.4526 9.94736 36.9472 9.74287C37.4418 9.53838 37.8912 9.23831 38.2696 8.85986C38.648 8.48141 38.948 8.03201 39.1525 7.53741C39.3569 7.04282 39.4617 6.51274 39.461 5.97755H35.3874Z" fill="#E6AB74"/>
<path fill-rule="evenodd" clip-rule="evenodd" d="M35.3874 5.97758H39.3816C39.383 5.45265 39.2806 4.93261 39.0804 4.44735C38.8802 3.9621 38.586 3.5212 38.2149 3.14999C37.8437 2.77879 37.4028 2.4846 36.9176 2.28434C36.4324 2.08407 35.9123 1.98168 35.3874 1.98305C34.8624 1.98153 34.3422 2.08381 33.8569 2.28401C33.3715 2.4842 32.9305 2.77837 32.5592 3.14958C32.1879 3.5208 31.8936 3.96176 31.6934 4.44709C31.4931 4.93242 31.3907 5.45255 31.3921 5.97758C31.3921 8.19271 33.1719 10.012 35.3874 10.012C37.6018 10.012 39.3816 8.19271 39.3816 5.97758H35.3874Z" fill="#E6AB75"/>
<path fill-rule="evenodd" clip-rule="evenodd" d="M35.3874 5.97757H39.342C39.342 3.80198 37.5626 2.02258 35.3874 2.02258C33.2118 2.02258 31.4316 3.80236 31.4316 5.97757C31.4316 8.1927 33.2114 9.93294 35.3874 9.93294C35.9073 9.93472 36.4224 9.83362 36.903 9.63546C37.3837 9.4373 37.8204 9.14601 38.188 8.77836C38.5555 8.4107 38.8468 7.97395 39.0448 7.49327C39.2429 7.01258 39.3439 6.49746 39.342 5.97757H35.3874Z" fill="#E7AD77"/>
<path fill-rule="evenodd" clip-rule="evenodd" d="M35.3874 5.97758H39.3029C39.3029 3.84192 37.5626 2.06213 35.3874 2.06213C33.2118 2.06213 31.4712 3.84192 31.4712 5.97758C31.4712 8.15317 33.2114 9.89341 35.3874 9.89341C35.9022 9.89555 36.4124 9.79571 36.8884 9.59968C37.3644 9.40364 37.7969 9.11528 38.1609 8.75123C38.525 8.38718 38.8133 7.95465 39.0093 7.4786C39.2053 7.00255 39.305 6.49239 39.3029 5.97758H35.3874Z" fill="#E7AD77"/>
<path fill-rule="evenodd" clip-rule="evenodd" d="M35.3874 5.97749H39.2633C39.2633 3.84183 37.5231 2.14075 35.3874 2.14075C33.2514 2.14075 31.5107 3.84183 31.5107 5.97749C31.5107 8.11354 33.251 9.85378 35.3874 9.85378C37.5227 9.85378 39.2633 8.11354 39.2633 5.97749H35.3874Z" fill="#E8AF79"/>
<path fill-rule="evenodd" clip-rule="evenodd" d="M35.3874 5.97748H39.1839C39.1839 3.88136 37.4832 2.18066 35.3874 2.18066C33.2909 2.18066 31.5898 3.88136 31.5898 5.97748C31.5898 8.11353 33.2905 9.81423 35.3874 9.81423C37.4832 9.81423 39.1839 8.11353 39.1839 5.97748H35.3874Z" fill="#E8AF7B"/>
<path fill-rule="evenodd" clip-rule="evenodd" d="M35.3874 5.97751H39.1447C39.1447 3.92093 37.4832 2.21985 35.3874 2.21985C33.2909 2.21985 31.6294 3.92093 31.6294 5.97751C31.6294 8.07363 33.2905 9.73517 35.3874 9.73517C37.4832 9.73517 39.1447 8.07401 39.1447 5.97751H35.3874Z" fill="#E8B17B"/>
<path fill-rule="evenodd" clip-rule="evenodd" d="M35.3875 5.9775H39.1052C39.1057 5.48914 39.0099 5.00548 38.8232 4.55419C38.6366 4.10291 38.3627 3.69287 38.0174 3.34754C37.6721 3.00222 37.2621 2.72839 36.8108 2.54174C36.3595 2.35508 35.8758 2.25926 35.3875 2.25977C34.899 2.25916 34.4153 2.3549 33.9639 2.54151C33.5125 2.72812 33.1024 3.00193 32.757 3.34727C32.4116 3.6926 32.1377 4.10268 31.951 4.55401C31.7643 5.00535 31.6684 5.48908 31.6689 5.9775C31.6684 6.46596 31.7642 6.94974 31.9509 7.40111C32.1376 7.85249 32.4114 8.26261 32.7569 8.60799C33.1023 8.95336 33.5124 9.22721 33.9638 9.41384C34.4152 9.60048 34.899 9.69623 35.3875 9.69563C35.8758 9.69608 36.3595 9.60021 36.8108 9.41352C37.2621 9.22682 37.6721 8.95296 38.0174 8.6076C38.3628 8.26225 38.6366 7.85218 38.8232 7.40088C39.0099 6.94957 39.1057 6.46588 39.1052 5.9775H35.3875V5.9775Z" fill="#E8B17D"/>
<path fill-rule="evenodd" clip-rule="evenodd" d="M35.3875 5.97752H39.0653C39.0653 3.96048 37.4045 2.33887 35.3875 2.33887C33.37 2.33887 31.7085 3.96048 31.7085 5.97752C31.7085 7.99456 33.3697 9.6561 35.3875 9.6561C37.4045 9.6561 39.0653 7.99494 39.0653 5.97752H35.3875Z" fill="#E8B17E"/>
<path fill-rule="evenodd" clip-rule="evenodd" d="M35.3876 5.97755H38.9867C38.9867 4.00005 37.3647 2.37844 35.3876 2.37844C34.9145 2.37682 34.4457 2.4688 34.0083 2.64909C33.5709 2.82939 33.1735 3.09443 32.8389 3.42895C32.5043 3.76348 32.2392 4.16088 32.0589 4.59828C31.8786 5.03568 31.7865 5.50443 31.7881 5.97755C31.7881 7.99459 33.3702 9.6162 35.3876 9.6162C37.3647 9.6162 38.9867 7.99459 38.9867 5.97755H35.3876Z" fill="#E9B381"/>
<path fill-rule="evenodd" clip-rule="evenodd" d="M35.3876 5.97757H38.9468C38.9488 5.5096 38.8581 5.04587 38.6799 4.61313C38.5018 4.18039 38.2397 3.78722 37.9088 3.45629C37.5779 3.12537 37.1847 2.86324 36.752 2.68503C36.3193 2.50683 35.8556 2.41607 35.3876 2.418C34.9196 2.41602 34.4558 2.50674 34.023 2.68491C33.5903 2.86309 33.197 3.12521 32.8661 3.45613C32.5351 3.78706 32.273 4.18025 32.0947 4.61301C31.9165 5.04577 31.8257 5.50954 31.8277 5.97757C31.8257 6.44561 31.9165 6.9094 32.0947 7.34218C32.2729 7.77497 32.5351 8.16818 32.866 8.49914C33.197 8.83009 33.5902 9.09224 34.023 9.27046C34.4558 9.44869 34.9196 9.53945 35.3876 9.53752C35.8556 9.5394 36.3193 9.4486 36.7521 9.27035C37.1848 9.0921 37.5779 8.82993 37.9088 8.49898C38.2397 8.16802 38.5018 7.77482 38.6799 7.34207C38.8581 6.90931 38.9488 6.44556 38.9468 5.97757H35.3876Z" fill="#E9B381"/>
<path fill-rule="evenodd" clip-rule="evenodd" d="M35.3871 5.97754H38.9068C38.9068 4.03959 37.3247 2.45752 35.3871 2.45752C33.4488 2.45752 31.8667 4.03959 31.8667 5.97754C31.8667 7.9155 33.4488 9.49757 35.3871 9.49757C37.3247 9.49757 38.9068 7.9155 38.9068 5.97754H35.3871V5.97754Z" fill="#E9B583"/>
<path fill-rule="evenodd" clip-rule="evenodd" d="M35.3876 5.97756H38.8681C38.8681 4.07915 37.2852 2.53662 35.3876 2.53662C33.4888 2.53662 31.9067 4.07915 31.9067 5.97756C31.9067 7.91551 33.4888 9.45804 35.3876 9.45804C37.2852 9.45804 38.8681 7.91551 38.8681 5.97756H35.3876V5.97756Z" fill="#E9B584"/>
<path fill-rule="evenodd" clip-rule="evenodd" d="M35.3871 5.97757H38.7881C38.7881 4.1187 37.2848 2.57617 35.3871 2.57617C33.4883 2.57617 31.9854 4.1187 31.9854 5.97757C31.9854 7.87598 33.4883 9.41851 35.3871 9.41851C37.2848 9.41851 38.7881 7.87598 38.7881 5.97757H35.3871Z" fill="#EAB786"/>
<path fill-rule="evenodd" clip-rule="evenodd" d="M35.3871 5.97758H38.7486C38.749 5.53601 38.6623 5.0987 38.4936 4.69066C38.3248 4.28263 38.0772 3.91188 37.765 3.59962C37.4528 3.28737 37.082 3.03975 36.674 2.87092C36.266 2.70209 35.8287 2.61537 35.3871 2.61572C33.5279 2.61572 32.0249 4.11871 32.0249 5.97758C32.0249 7.83645 33.5279 9.33944 35.3871 9.33944C35.8287 9.33979 36.266 9.25307 36.674 9.08424C37.082 8.91541 37.4528 8.66779 37.765 8.35554C38.0772 8.04328 38.3248 7.67253 38.4936 7.26449C38.6623 6.85646 38.749 6.41915 38.7486 5.97758H35.3871Z" fill="#EAB788"/>
<path fill-rule="evenodd" clip-rule="evenodd" d="M35.3876 5.97759H38.7092C38.7092 4.15826 37.2066 2.65527 35.3876 2.65527C33.5679 2.65527 32.0649 4.15826 32.0649 5.97759C32.0649 7.83646 33.5679 9.2999 35.3876 9.2999C37.2066 9.2999 38.7092 7.83646 38.7092 5.97759H35.3876Z" fill="#EBB989"/>
<path fill-rule="evenodd" clip-rule="evenodd" d="M35.3872 5.97748H38.6699C38.6699 4.1977 37.2065 2.73425 35.3872 2.73425C33.5675 2.73425 32.104 4.1977 32.104 5.97748C32.103 6.40891 32.1871 6.8363 32.3518 7.23509C32.5164 7.63388 32.7582 7.99621 33.0633 8.30126C33.3684 8.60631 33.7307 8.84807 34.1295 9.01265C34.5283 9.17722 34.9557 9.26137 35.3872 9.26025C35.8186 9.26132 36.2459 9.17713 36.6447 9.01253C37.0435 8.84794 37.4058 8.60617 37.7108 8.30112C38.0159 7.99608 38.2576 7.63377 38.4222 7.235C38.5868 6.83624 38.671 6.40888 38.6699 5.97748H35.3872V5.97748Z" fill="#EBB98A"/>
<path fill-rule="evenodd" clip-rule="evenodd" d="M35.3872 5.97752H38.5905C38.5923 5.55634 38.5106 5.13897 38.3503 4.74951C38.1899 4.36004 37.954 4.00618 37.6562 3.70834C37.3584 3.4105 37.0046 3.17458 36.6152 3.01418C36.2257 2.85379 35.8084 2.7721 35.3872 2.77383C33.607 2.77383 32.1831 4.19735 32.1831 5.97752C32.1831 7.75768 33.607 9.22113 35.3872 9.22113C37.1666 9.22113 38.5905 7.75768 38.5905 5.97752H35.3872Z" fill="#EBBB8C"/>
<path fill-rule="evenodd" clip-rule="evenodd" d="M35.3872 5.9775H38.5506C38.5506 4.23726 37.1274 2.81335 35.3872 2.81335C33.6466 2.81335 32.2227 4.23687 32.2227 5.9775C32.2227 7.75728 33.6466 9.14203 35.3872 9.14203C37.1274 9.14203 38.5506 7.75767 38.5506 5.9775H35.3872Z" fill="#EBBB8C"/>
<path fill-rule="evenodd" clip-rule="evenodd" d="M35.3872 5.97751H38.5119C38.5119 4.27681 37.1279 2.85291 35.3872 2.85291C33.6466 2.85291 32.2623 4.27643 32.2623 5.97751C32.2598 6.38855 32.339 6.796 32.4952 7.17622C32.6513 7.55645 32.8814 7.90189 33.1721 8.19253C33.4628 8.48317 33.8083 8.71322 34.1885 8.86936C34.5688 9.0255 34.9762 9.10461 35.3872 9.10211C35.7983 9.10461 36.2057 9.02549 36.5859 8.86935C36.9662 8.71321 37.3116 8.48315 37.6022 8.1925C37.8929 7.90186 38.123 7.55641 38.2791 7.17619C38.4352 6.79597 38.5143 6.38853 38.5119 5.97751H35.3872Z" fill="#ECBD8F"/>
<path fill-rule="evenodd" clip-rule="evenodd" d="M35.3872 5.97752H38.4719C38.4719 4.27683 37.0879 2.93201 35.3872 2.93201C33.6861 2.93201 32.3018 4.27644 32.3018 5.97752C32.3018 7.67861 33.6861 9.06297 35.3872 9.06297C37.0879 9.06297 38.4719 7.67861 38.4719 5.97752H35.3872Z" fill="#ECBD90"/>
<path fill-rule="evenodd" clip-rule="evenodd" d="M35.3872 5.97753H38.3924C38.3926 5.58279 38.315 5.19188 38.1641 4.82714C38.0131 4.46239 37.7918 4.13097 37.5127 3.85181C37.2336 3.57265 36.9023 3.35122 36.5376 3.20018C36.1729 3.04915 35.782 2.97146 35.3872 2.97156C34.9924 2.97136 34.6014 3.04897 34.2366 3.19996C33.8718 3.35094 33.5403 3.57235 33.2611 3.85151C32.9819 4.13068 32.7604 4.46213 32.6094 4.82693C32.4584 5.19172 32.3807 5.58271 32.3809 5.97753C32.3809 7.63869 33.7257 9.02305 35.3872 9.02305C37.048 9.02305 38.3924 7.63869 38.3924 5.97753H35.3872Z" fill="#ECBF93"/>
<path fill-rule="evenodd" clip-rule="evenodd" d="M35.3872 5.97754H38.3537C38.3537 4.35593 37.0085 3.01111 35.3872 3.01111C33.7257 3.01111 32.4204 4.35593 32.4204 5.97754C32.4204 7.6387 33.7257 8.94398 35.3872 8.94398C37.0085 8.94398 38.3537 7.6387 38.3537 5.97754H35.3872Z" fill="#ECBF93"/>
<path fill-rule="evenodd" clip-rule="evenodd" d="M35.3872 5.97755H38.3137C38.3137 4.35594 37.0085 3.05066 35.3872 3.05066C33.7652 3.05066 32.46 4.35555 32.46 5.97755C32.46 7.59955 33.7652 8.90444 35.3872 8.90444C35.7718 8.9053 36.1528 8.83018 36.5083 8.68339C36.8637 8.5366 37.1867 8.32104 37.4586 8.04907C37.7306 7.77711 37.9461 7.45411 38.0928 7.09861C38.2396 6.74312 38.3147 6.36214 38.3137 5.97755H35.3872Z" fill="#EDC195"/>
<path fill-rule="evenodd" clip-rule="evenodd" d="M35.3872 5.97755H38.2742C38.2742 4.39548 36.9697 3.13013 35.3872 3.13013C33.8048 3.13013 32.4995 4.39586 32.4995 5.97755C32.4995 7.55962 33.8048 8.8649 35.3872 8.8649C36.9693 8.8649 38.2742 7.55962 38.2742 5.97755H35.3872Z" fill="#EDC196"/>
<path fill-rule="evenodd" clip-rule="evenodd" d="M35.3873 5.97757H38.1951C38.1951 4.43504 36.9294 3.16931 35.3873 3.16931C33.8443 3.16931 32.5786 4.43504 32.5786 5.97757C32.5786 7.55965 33.8443 8.82538 35.3873 8.82538C36.9298 8.82538 38.1951 7.55965 38.1951 5.97757H35.3873V5.97757Z" fill="#EEC397"/>
<path fill-rule="evenodd" clip-rule="evenodd" d="M35.3873 5.97757H38.1557C38.1557 4.47458 36.9299 3.20923 35.3873 3.20923C33.8444 3.20923 32.6182 4.47496 32.6182 5.97757C32.616 6.34182 32.6861 6.70289 32.8244 7.03985C32.9628 7.3768 33.1667 7.68294 33.4243 7.94049C33.6819 8.19804 33.988 8.40189 34.325 8.54021C34.662 8.67854 35.0231 8.74859 35.3873 8.74629C35.7515 8.74854 36.1125 8.67845 36.4495 8.5401C36.7864 8.40174 37.0925 8.19788 37.35 7.94033C37.6075 7.68278 37.8113 7.37666 37.9496 7.03973C38.0879 6.7028 38.158 6.34177 38.1557 5.97757H35.3873Z" fill="#EEC399"/>
<path fill-rule="evenodd" clip-rule="evenodd" d="M35.3873 5.97747H38.1157C38.1157 4.47448 36.8899 3.24829 35.3873 3.24829C33.8839 3.24829 32.6577 4.47448 32.6577 5.97747C32.6577 7.48084 33.8839 8.70665 35.3873 8.70665C36.8899 8.70665 38.1157 7.48084 38.1157 5.97747H35.3873Z" fill="#EEC59B"/>
<path fill-rule="evenodd" clip-rule="evenodd" d="M35.3873 5.97749H38.0762C38.0762 4.51404 36.8503 3.32739 35.3873 3.32739C33.9235 3.32739 32.6973 4.51404 32.6973 5.97749C32.6973 7.48086 33.9235 8.66713 35.3873 8.66713C36.8503 8.66713 38.0762 7.48086 38.0762 5.97749H35.3873Z" fill="#EEC69D"/>
<path fill-rule="evenodd" clip-rule="evenodd" d="M35.3873 5.9775H37.9975C37.9975 4.55398 36.8504 3.36694 35.3873 3.36694C33.9235 3.36694 32.7764 4.55359 32.7764 5.9775C32.7764 7.44094 33.9235 8.62759 35.3873 8.62759C36.8504 8.62759 37.9975 7.44094 37.9975 5.9775H35.3873Z" fill="#EEC69F"/>
<path fill-rule="evenodd" clip-rule="evenodd" d="M35.3873 5.97751H37.9576C37.9582 5.63976 37.8922 5.3052 37.7633 4.99303C37.6343 4.68085 37.4451 4.3972 37.2063 4.15834C36.9675 3.91948 36.6839 3.73011 36.3717 3.60109C36.0596 3.47207 35.7251 3.40594 35.3873 3.4065C35.0495 3.40579 34.7148 3.47181 34.4025 3.60076C34.0903 3.72971 33.8065 3.91905 33.5676 4.15793C33.3287 4.3968 33.1393 4.68051 33.0103 4.99276C32.8813 5.30501 32.8153 5.63966 32.8159 5.97751C32.8153 6.31536 32.8813 6.65001 33.0103 6.96226C33.1393 7.27452 33.3287 7.55822 33.5676 7.79709C33.8065 8.03597 34.0903 8.22532 34.4025 8.35427C34.7148 8.48322 35.0495 8.54923 35.3873 8.54853C35.7251 8.54913 36.0596 8.48304 36.3718 8.35404C36.684 8.22504 36.9676 8.03567 37.2064 7.7968C37.4452 7.55793 37.6345 7.27425 37.7634 6.96206C37.8923 6.64986 37.9583 6.31528 37.9576 5.97751H35.3873V5.97751Z" fill="#EFC89F"/>
<path fill-rule="evenodd" clip-rule="evenodd" d="M35.3873 5.9775H37.9188C37.9188 4.59352 36.7717 3.44641 35.3873 3.44641C34.0026 3.44641 32.8555 4.59352 32.8555 5.9775C32.8545 6.31025 32.9193 6.63992 33.0461 6.94754C33.173 7.25515 33.3595 7.53464 33.5948 7.76991C33.8301 8.00519 34.1096 8.19161 34.4173 8.31845C34.7249 8.44528 35.0546 8.51003 35.3873 8.50897C35.7201 8.50998 36.0497 8.44519 36.3573 8.31833C36.6649 8.19147 36.9443 8.00505 37.1796 7.76978C37.4149 7.53451 37.6013 7.25503 37.7282 6.94744C37.855 6.63985 37.9198 6.31022 37.9188 5.9775H35.3873Z" fill="#EFC8A1"/>
<path fill-rule="evenodd" clip-rule="evenodd" d="M35.3874 5.97751H37.8789C37.8789 4.63308 36.7713 3.52551 35.3874 3.52551C34.0026 3.52551 32.895 4.63308 32.895 5.97751C32.8937 6.30518 32.9572 6.62987 33.082 6.93285C33.2067 7.23582 33.3903 7.51109 33.622 7.74277C33.8537 7.97444 34.129 8.15794 34.432 8.28266C34.735 8.40738 35.0597 8.47087 35.3874 8.46944C35.7149 8.47076 36.0396 8.40721 36.3425 8.28244C36.6454 8.15767 36.9206 7.97416 37.1522 7.7425C37.3839 7.51083 37.5673 7.2356 37.692 6.93267C37.8168 6.62974 37.8803 6.30511 37.8789 5.97751H35.3874Z" fill="#EFCAA3"/>
<path fill-rule="evenodd" clip-rule="evenodd" d="M35.3874 5.97757H37.7995C37.8016 5.66021 37.7406 5.3456 37.6201 5.05199C37.4997 4.75837 37.3221 4.49161 37.0977 4.26718C36.8733 4.04275 36.6065 3.86512 36.313 3.74461C36.0194 3.62409 35.7048 3.56308 35.3874 3.56512C35.07 3.56303 34.7553 3.62399 34.4616 3.74448C34.1679 3.86497 33.9011 4.04258 33.6766 4.267C33.4521 4.49143 33.2744 4.7582 33.1538 5.05184C33.0332 5.34548 32.9722 5.66014 32.9742 5.97757C32.9742 7.32239 34.0422 8.42996 35.3874 8.42996C36.7318 8.42996 37.7995 7.32278 37.7995 5.97757H35.3874Z" fill="#EFCAA3"/>
<path fill-rule="evenodd" clip-rule="evenodd" d="M35.3874 5.97753H37.7599C37.7599 4.67225 36.6922 3.60461 35.3874 3.60461C34.0817 3.60461 33.0137 4.67225 33.0137 5.97753C33.0137 7.28281 34.0817 8.35083 35.3874 8.35083C36.6919 8.35083 37.7599 7.28281 37.7599 5.97753H35.3874V5.97753Z" fill="#F0CCA6"/>
<path fill-rule="evenodd" clip-rule="evenodd" d="M35.3874 5.97754H37.7207C37.7207 4.71219 36.6523 3.64417 35.3874 3.64417C34.0817 3.64417 33.0532 4.71219 33.0532 5.97754C33.0532 7.28282 34.0817 8.3113 35.3874 8.3113C36.6523 8.3113 37.7207 7.28282 37.7207 5.97754H35.3874Z" fill="#F0CCA8"/>
<path fill-rule="evenodd" clip-rule="evenodd" d="M35.3874 5.97755H37.6812C37.6812 4.7122 36.6523 3.72327 35.3874 3.72327C34.1216 3.72327 33.0928 4.7122 33.0928 5.97755C33.0932 6.58596 33.3351 7.16933 33.7653 7.5995C34.1956 8.02967 34.779 8.27147 35.3874 8.27177C35.9956 8.27127 36.5789 8.02938 37.0089 7.59923C37.439 7.16908 37.6808 6.58583 37.6812 5.97755H35.3874Z" fill="#F1CEAA"/>
<path fill-rule="evenodd" clip-rule="evenodd" d="M35.3874 5.97757H37.6018C37.6023 5.6866 37.5454 5.39838 37.4343 5.12945C37.3233 4.86052 37.1602 4.61616 36.9544 4.4104C36.7487 4.20464 36.5044 4.04151 36.2355 3.93039C35.9666 3.81926 35.6784 3.76231 35.3874 3.76282C34.1608 3.76282 33.1719 4.75138 33.1719 5.97757C33.1719 7.20376 34.1608 8.23224 35.3874 8.23224C36.6132 8.23224 37.6018 7.20376 37.6018 5.97757H35.3874Z" fill="#F1CEAA"/>
<path fill-rule="evenodd" clip-rule="evenodd" d="M35.3875 5.97747H37.5627C37.5627 4.7912 36.5738 3.80188 35.3875 3.80188C34.2005 3.80188 33.2119 4.79082 33.2119 5.97747C33.2111 6.26341 33.2667 6.54671 33.3758 6.81105C33.4848 7.0754 33.645 7.31557 33.8472 7.51777C34.0494 7.71996 34.2896 7.88018 34.5539 7.98921C34.8183 8.09824 35.1016 8.15392 35.3875 8.15306C35.6734 8.15387 35.9567 8.09815 36.221 7.9891C36.4853 7.88005 36.7254 7.71982 36.9276 7.51763C37.1297 7.31544 37.2899 7.07528 37.3989 6.81096C37.5079 6.54664 37.5636 6.26338 37.5627 5.97747H35.3875Z" fill="#F1D0AD"/>
<path fill-rule="evenodd" clip-rule="evenodd" d="M35.387 5.97746H37.5223C37.5223 4.83035 36.5729 3.8418 35.387 3.8418C34.2 3.8418 33.251 4.83035 33.251 5.97746C33.2498 6.25831 33.3042 6.53662 33.4111 6.79633C33.518 7.05604 33.6753 7.292 33.8739 7.49059C34.0725 7.68919 34.3085 7.84648 34.5682 7.95339C34.8279 8.06031 35.1062 8.11473 35.387 8.11351C35.6678 8.11463 35.9461 8.06013 36.2057 7.95317C36.4653 7.84621 36.7012 7.6889 36.8997 7.49032C37.0982 7.29173 37.2554 7.05581 37.3623 6.79615C37.4691 6.53649 37.5235 6.25825 37.5223 5.97746H35.387V5.97746Z" fill="#F1D0AE"/>
<path fill-rule="evenodd" clip-rule="evenodd" d="M35.3875 5.97748H37.4833C37.4833 4.83037 36.5339 3.9209 35.3875 3.9209C34.2404 3.9209 33.291 4.83037 33.291 5.97748C33.291 7.12458 34.2404 8.0736 35.3875 8.0736C36.5339 8.0736 37.4833 7.1242 37.4833 5.97748H35.3875Z" fill="#F2D2B1"/>
<path fill-rule="evenodd" clip-rule="evenodd" d="M35.387 5.97749H37.4041C37.4041 4.8703 36.4938 3.96045 35.387 3.96045C34.2795 3.96045 33.3696 4.8703 33.3696 5.97749C33.3696 7.12459 34.2799 8.03407 35.387 8.03407C36.4938 8.03407 37.4041 7.12421 37.4041 5.97749H35.387Z" fill="#F2D2B3"/>
<path fill-rule="evenodd" clip-rule="evenodd" d="M35.3875 5.9775H37.3647C37.3647 4.90947 36.494 4 35.3875 4C34.28 4 33.4097 4.90947 33.4097 5.9775C33.4097 7.08506 34.2804 7.95499 35.3875 7.95499C36.4943 7.95499 37.3647 7.08468 37.3647 5.9775H35.3875Z" fill="#F3D4B4"/>
<path fill-rule="evenodd" clip-rule="evenodd" d="M35.3876 5.9775H37.3251C37.3244 5.46381 37.1201 4.97135 36.7569 4.60808C36.3937 4.24481 35.9012 4.04036 35.3876 4.03955C34.3191 4.03955 33.4492 4.90986 33.4492 5.9775C33.4492 7.04514 34.3191 7.91546 35.3876 7.91546C35.9012 7.91454 36.3936 7.71006 36.7568 7.34681C37.1199 6.98356 37.3243 6.49116 37.3251 5.9775H35.3876Z" fill="#F3D4B5"/>
<path fill-rule="evenodd" clip-rule="evenodd" d="M35.3871 5.97752H37.2847C37.2847 4.94942 36.4148 4.11865 35.3871 4.11865C34.3582 4.11865 33.4883 4.94942 33.4883 5.97752C33.4883 7.04554 34.3586 7.87593 35.3871 7.87593C36.4152 7.87593 37.2847 7.04516 37.2847 5.97752H35.3871Z" fill="#F3D4B7"/>
<path fill-rule="evenodd" clip-rule="evenodd" d="M35.3876 5.97754H37.2065C37.2072 5.73847 37.1606 5.50162 37.0694 5.28062C36.9782 5.05962 36.8443 4.85881 36.6753 4.68975C36.5062 4.52068 36.3055 4.38669 36.0845 4.29547C35.8635 4.20425 35.6267 4.1576 35.3876 4.15821C35.1485 4.1575 34.9115 4.20407 34.6905 4.29525C34.4694 4.38642 34.2685 4.5204 34.0994 4.68948C33.9303 4.85855 33.7963 5.05939 33.7051 5.28044C33.6138 5.5015 33.5672 5.7384 33.5679 5.97754C33.5679 7.00602 34.3591 7.83641 35.3876 7.83641C36.4157 7.83641 37.2065 7.00563 37.2065 5.97754H35.3876Z" fill="#F3D6B8"/>
<path fill-rule="evenodd" clip-rule="evenodd" d="M35.3871 5.97755H37.1665C37.1675 5.74359 37.1221 5.51175 37.033 5.29541C36.9439 5.07906 36.8129 4.88249 36.6475 4.71704C36.4821 4.55158 36.2855 4.42051 36.0692 4.33139C35.8529 4.24227 35.6211 4.19685 35.3871 4.19777C34.3982 4.19777 33.6069 4.98899 33.6069 5.97755C33.6069 6.9661 34.3982 7.75733 35.3871 7.75733C35.6211 7.75825 35.8529 7.71283 36.0692 7.62371C36.2855 7.53459 36.4821 7.40352 36.6475 7.23806C36.8129 7.07261 36.9439 6.87604 37.033 6.6597C37.1221 6.44335 37.1675 6.21151 37.1665 5.97755H35.3871Z" fill="#F4D8BA"/>
<path fill-rule="evenodd" clip-rule="evenodd" d="M35.3871 5.97754H37.1274C37.1274 5.02815 36.3361 4.2373 35.3871 4.2373C34.4381 4.2373 33.6465 5.02853 33.6465 5.97754C33.6465 6.96648 34.4381 7.71779 35.3871 7.71779C36.3361 7.71779 37.1274 6.9661 37.1274 5.97754H35.3871Z" fill="#F4D9BC"/>
<path fill-rule="evenodd" clip-rule="evenodd" d="M35.3876 5.97756H37.0883C37.0883 5.06771 36.337 4.31641 35.3876 4.31641C34.4382 4.31641 33.6865 5.06771 33.6865 5.97756C33.6865 6.92696 34.4382 7.67826 35.3876 7.67826C36.337 7.67826 37.0883 6.92657 37.0883 5.97756H35.3876V5.97756Z" fill="#F4D9BE"/>
<path fill-rule="evenodd" clip-rule="evenodd" d="M35.3871 5.97757H37.0084C37.0084 5.06772 36.2966 4.35596 35.3871 4.35596C34.4769 4.35596 33.7651 5.06772 33.7651 5.97757C33.7651 6.88743 34.4769 7.63873 35.3871 7.63873C36.2966 7.63873 37.0084 6.88704 37.0084 5.97757H35.3871Z" fill="#F4DBBF"/>
<path fill-rule="evenodd" clip-rule="evenodd" d="M35.3876 5.97758H36.9697C36.9685 5.55836 36.8014 5.15666 36.505 4.86023C36.2085 4.5638 35.8068 4.39672 35.3876 4.39551C34.5169 4.39551 33.8052 5.10727 33.8052 5.97758C33.8052 6.84789 34.5169 7.55965 35.3876 7.55965C35.8068 7.55844 36.2085 7.39136 36.505 7.09493C36.8014 6.7985 36.9685 6.3968 36.9697 5.97758H35.3876Z" fill="#F4DBC0"/>
<path fill-rule="evenodd" clip-rule="evenodd" d="M35.3872 5.97759H36.9297C36.9297 5.14682 36.2175 4.43506 35.3872 4.43506C34.5564 4.43506 33.8442 5.14682 33.8442 5.97759C33.8442 6.8479 34.5564 7.52012 35.3872 7.52012C36.2172 7.52012 36.9297 6.8479 36.9297 5.97759H35.3872Z" fill="#F5DDC3"/>
<path fill-rule="evenodd" clip-rule="evenodd" d="M35.3872 5.97748H36.8898C36.8898 5.18625 36.2172 4.51404 35.3872 4.51404C34.5564 4.51404 33.8838 5.18625 33.8838 5.97748C33.8838 6.3761 34.0421 6.75839 34.324 7.04026C34.6059 7.32212 34.9882 7.48047 35.3868 7.48047C35.7854 7.48047 36.1677 7.32212 36.4496 7.04026C36.7314 6.75839 36.8898 6.3761 36.8898 5.97748H35.3872Z" fill="#F5DDC3"/>
<path fill-rule="evenodd" clip-rule="evenodd" d="M35.3872 5.97747H36.8103C36.8103 5.18625 36.1784 4.55396 35.3872 4.55396C34.5959 4.55396 33.9629 5.18663 33.9629 5.97747C33.9629 6.76832 34.5959 7.44092 35.3872 7.44092C36.1784 7.44092 36.8103 6.7687 36.8103 5.97747H35.3872Z" fill="#F6DFC6"/>
<path fill-rule="evenodd" clip-rule="evenodd" d="M35.3872 5.97748H36.7712C36.7712 5.2258 36.1385 4.59351 35.3872 4.59351C34.6351 4.59351 34.0024 5.22618 34.0024 5.97748C34.0024 6.76871 34.6351 7.36184 35.3872 7.36184C36.1385 7.36184 36.7712 6.76871 36.7712 5.97748H35.3872Z" fill="#F6DFC7"/>
<path fill-rule="evenodd" clip-rule="evenodd" d="M35.3872 5.97749H36.7317C36.7317 5.26573 36.1385 4.63306 35.3872 4.63306C34.6352 4.63306 34.042 5.26573 34.042 5.97749C34.0406 6.15454 34.0743 6.33012 34.1414 6.49397C34.2085 6.65783 34.3075 6.80669 34.4328 6.93187C34.558 7.05705 34.7069 7.15604 34.8707 7.22308C35.0346 7.29011 35.2102 7.32385 35.3872 7.32231C35.5642 7.32375 35.7397 7.28994 35.9035 7.22285C36.0673 7.15577 36.2161 7.05676 36.3412 6.93159C36.4664 6.80642 36.5653 6.6576 36.6324 6.49379C36.6994 6.32999 36.7332 6.15448 36.7317 5.97749H35.3872Z" fill="#F6E1CA"/>
<path fill-rule="evenodd" clip-rule="evenodd" d="M35.3872 5.97751H36.6917C36.6917 5.26575 36.0986 4.71216 35.3872 4.71216C34.6751 4.71216 34.0815 5.26575 34.0815 5.97751C34.0815 6.68965 34.6747 7.28279 35.3872 7.28279C36.099 7.28279 36.6917 6.68965 36.6917 5.97751H35.3872Z" fill="#F6E1CC"/>
<path fill-rule="evenodd" clip-rule="evenodd" d="M35.3872 5.97754H36.613C36.6114 5.65289 36.4818 5.342 36.2522 5.1124C36.0227 4.88281 35.7119 4.75306 35.3872 4.75134C35.0624 4.75286 34.7514 4.88252 34.5217 5.11214C34.292 5.34175 34.1623 5.65276 34.1606 5.97754C34.1606 6.68968 34.7146 7.24327 35.3872 7.24327C36.0591 7.24327 36.613 6.68968 36.613 5.97754H35.3872Z" fill="#F7E3CD"/>
<path fill-rule="evenodd" clip-rule="evenodd" d="M35.3872 5.97752H36.5735C36.5735 5.34485 36.0591 4.79126 35.3872 4.79126C34.7146 4.79126 34.2002 5.34485 34.2002 5.97752C34.2002 6.64974 34.7146 7.16418 35.3872 7.16418C36.0591 7.16418 36.5735 6.64974 36.5735 5.97752H35.3872Z" fill="#F7E3CF"/>
<path fill-rule="evenodd" clip-rule="evenodd" d="M35.3873 5.97755H36.5337C36.5335 5.67352 36.4127 5.38198 36.1977 5.16692C35.9828 4.95186 35.6914 4.83085 35.3873 4.83044C35.0882 4.83818 34.804 4.96243 34.5952 5.17672C34.3864 5.391 34.2695 5.67836 34.2695 5.97755C34.2695 6.27675 34.3864 6.56411 34.5952 6.77839C34.804 6.99267 35.0882 7.11692 35.3873 7.12466C35.6914 7.12435 35.9829 7.00338 36.1979 6.7883C36.4128 6.57322 36.5336 6.28162 36.5337 5.97755H35.3873Z" fill="#F7E3D0"/>
<path fill-rule="evenodd" clip-rule="evenodd" d="M35.3874 5.97745H36.4942C36.4942 5.38431 35.9805 4.90942 35.3874 4.90942C34.7935 4.90942 34.2798 5.38431 34.2798 5.97745C34.2795 6.12298 34.3079 6.26714 34.3635 6.40165C34.419 6.53617 34.5006 6.65839 34.6035 6.76129C34.7064 6.8642 34.8286 6.94577 34.9631 7.00132C35.0977 7.05688 35.2418 7.08532 35.3874 7.08501C35.5328 7.08527 35.6769 7.05679 35.8114 7.00121C35.9458 6.94563 36.068 6.86404 36.1708 6.76113C36.2737 6.65822 36.3552 6.53602 36.4106 6.40154C36.4661 6.26705 36.4945 6.12293 36.4942 5.97745H35.3874Z" fill="#F8E5D1"/>
<path fill-rule="evenodd" clip-rule="evenodd" d="M35.3873 5.97747H36.4154C36.4154 5.42387 35.9804 4.94937 35.3873 4.94937C35.252 4.94835 35.1178 4.97424 34.9925 5.02553C34.8673 5.07683 34.7535 5.15251 34.6578 5.24817C34.562 5.34383 34.4863 5.45757 34.4349 5.58277C34.3835 5.70797 34.3575 5.84213 34.3584 5.97747C34.3584 6.5706 34.7934 7.04549 35.3873 7.04549C35.9804 7.04549 36.4154 6.57098 36.4154 5.97747H35.3873Z" fill="#F8E8D4"/>
<path fill-rule="evenodd" clip-rule="evenodd" d="M35.3874 5.97751H36.3756C36.3769 5.84734 36.3523 5.7182 36.3031 5.59767C36.2539 5.47713 36.1812 5.36761 36.0892 5.27553C35.9972 5.18344 35.8877 5.11063 35.7672 5.06136C35.6467 5.01209 35.5176 4.98734 35.3874 4.98857C35.2572 4.98729 35.128 5.01199 35.0075 5.06124C34.8869 5.11048 34.7774 5.18328 34.6853 5.27537C34.5932 5.36746 34.5204 5.47699 34.4712 5.59755C34.4219 5.71811 34.3972 5.84728 34.3985 5.97751C34.3972 6.10775 34.4218 6.23695 34.471 6.35753C34.5203 6.47812 34.5931 6.58767 34.6852 6.67977C34.7773 6.77187 34.8868 6.84467 35.0074 6.89389C35.128 6.94312 35.2572 6.96779 35.3874 6.96645C35.5176 6.96768 35.6467 6.94294 35.7672 6.89367C35.8877 6.84439 35.9972 6.77158 36.0892 6.6795C36.1812 6.58741 36.2539 6.47789 36.3031 6.35736C36.3523 6.23682 36.3769 6.10769 36.3756 5.97751H35.3874Z" fill="#F8E8D6"/>
<path fill-rule="evenodd" clip-rule="evenodd" d="M35.3874 5.97748H36.3368C36.3368 5.46343 35.9011 5.06763 35.3874 5.06763C34.873 5.06763 34.438 5.46305 34.438 5.97748C34.438 6.49191 34.873 6.92688 35.3874 6.92688C35.9011 6.92688 36.3368 6.49191 36.3368 5.97748H35.3874Z" fill="#F8E8D8"/>
<path fill-rule="evenodd" clip-rule="evenodd" d="M35.3873 5.97749H36.2968C36.2968 5.50298 35.861 5.10718 35.3873 5.10718C34.912 5.10718 34.4771 5.50298 34.4771 5.97749C34.4771 6.49154 34.912 6.88735 35.3873 6.88735C35.861 6.88735 36.2968 6.49192 36.2968 5.97749H35.3873Z" fill="#F9EAD9"/>
<path fill-rule="evenodd" clip-rule="evenodd" d="M35.3874 5.9775H36.2174C36.2174 5.54253 35.8611 5.14673 35.3874 5.14673C34.9121 5.14673 34.5566 5.54215 34.5566 5.9775C34.5566 6.45239 34.9121 6.84781 35.3874 6.84781C35.8611 6.84781 36.2174 6.45239 36.2174 5.9775H35.3874Z" fill="#FAECDC"/>
<path fill-rule="evenodd" clip-rule="evenodd" d="M35.3874 5.97751H36.1786C36.1779 5.76788 36.0944 5.56704 35.9461 5.41881C35.7979 5.27058 35.597 5.18699 35.3874 5.18628C34.9517 5.18628 34.5962 5.54216 34.5962 5.97751C34.5962 6.41285 34.9517 6.76874 35.3874 6.76874C35.5971 6.76813 35.798 6.68457 35.9462 6.53632C36.0945 6.38807 36.178 6.18717 36.1786 5.97751H35.3874V5.97751Z" fill="#FAECDD"/>
<path fill-rule="evenodd" clip-rule="evenodd" d="M35.3873 5.97751H36.1386C36.1386 5.58208 35.7824 5.26575 35.3873 5.26575C34.9915 5.26575 34.6353 5.58208 34.6353 5.97751C34.6353 6.41247 34.9915 6.72919 35.3873 6.72919C35.486 6.72919 35.5837 6.70975 35.6749 6.67197C35.7661 6.63419 35.8489 6.57881 35.9187 6.50901C35.9885 6.4392 36.0438 6.35633 36.0815 6.26514C36.1193 6.17394 36.1387 6.0762 36.1386 5.97751H35.3873Z" fill="#FAECDF"/>
<path fill-rule="evenodd" clip-rule="evenodd" d="M35.3874 5.97752H36.0992C36.0992 5.62164 35.7829 5.3053 35.3874 5.3053C34.9916 5.3053 34.6753 5.62164 34.6753 5.97752C34.6753 6.37332 34.9916 6.68966 35.3874 6.68966C35.481 6.69002 35.5738 6.67184 35.6603 6.63617C35.7469 6.6005 35.8255 6.54805 35.8917 6.48185C35.9578 6.41564 36.0102 6.33699 36.0459 6.25043C36.0815 6.16387 36.0996 6.07112 36.0992 5.97752H35.3874Z" fill="#FAEEE0"/>
<path fill-rule="evenodd" clip-rule="evenodd" d="M35.3873 5.97752H36.02C36.02 5.62164 35.7425 5.34485 35.3873 5.34485C35.0311 5.34485 34.7539 5.62164 34.7539 5.97752C34.7539 6.3334 35.0315 6.64974 35.3873 6.64974C35.7428 6.64974 36.02 6.3334 36.02 5.97752H35.3873Z" fill="#FBF0E3"/>
<path fill-rule="evenodd" clip-rule="evenodd" d="M35.3874 5.97753H35.9805C35.9805 5.66119 35.7029 5.3844 35.3874 5.3844C35.071 5.3844 34.7935 5.66119 34.7935 5.97753C34.7935 6.33341 35.071 6.57067 35.3874 6.57067C35.7029 6.57067 35.9805 6.33341 35.9805 5.97753H35.3874Z" fill="#FBF1E5"/>
<path fill-rule="evenodd" clip-rule="evenodd" d="M35.3875 5.97755H35.9407C35.9407 5.70075 35.703 5.4635 35.3875 5.4635C35.0711 5.4635 34.8335 5.70075 34.8335 5.97755C34.8335 6.29427 35.0711 6.53152 35.3875 6.53152C35.703 6.53152 35.9407 6.29427 35.9407 5.97755H35.3875Z" fill="#FBF1E7"/>
<path fill-rule="evenodd" clip-rule="evenodd" d="M35.3875 5.97756H35.9011C35.9011 5.70076 35.6643 5.50305 35.3875 5.50305C35.1099 5.50305 34.873 5.70076 34.873 5.97756C34.873 6.25474 35.1099 6.49161 35.3875 6.49161C35.6643 6.49161 35.9011 6.25435 35.9011 5.97756H35.3875Z" fill="#FCF3E8"/>
<path fill-rule="evenodd" clip-rule="evenodd" d="M35.3874 5.97757H35.8224C35.8224 5.74031 35.6243 5.5426 35.3874 5.5426C35.1498 5.5426 34.9517 5.7407 34.9517 5.97757C34.9517 6.25474 35.1498 6.45246 35.3874 6.45246C35.6243 6.45246 35.8224 6.25474 35.8224 5.97757H35.3874Z" fill="#FCF3EA"/>
<path fill-rule="evenodd" clip-rule="evenodd" d="M35.3875 5.97758H35.7825C35.7825 5.77986 35.6244 5.58215 35.3875 5.58215C35.1499 5.58215 34.9917 5.77986 34.9917 5.97758C34.9917 6.21521 35.1499 6.37338 35.3875 6.37338C35.6244 6.37338 35.7825 6.21521 35.7825 5.97758H35.3875Z" fill="#FCF5ED"/>
<path fill-rule="evenodd" clip-rule="evenodd" d="M35.3875 5.97747H35.743C35.743 5.77976 35.5848 5.66113 35.3875 5.66113C35.1894 5.66113 35.0312 5.77976 35.0312 5.97747C35.0312 6.17518 35.1894 6.33335 35.3875 6.33335C35.4343 6.3335 35.4806 6.3244 35.5238 6.30656C35.5671 6.28873 35.6063 6.26252 35.6394 6.22943C35.6724 6.19635 35.6986 6.15705 35.7164 6.11381C35.7342 6.07057 35.7432 6.02423 35.743 5.97747H35.3875Z" fill="#FCF5EF"/>
<path fill-rule="evenodd" clip-rule="evenodd" d="M35.3871 5.9776H35.7027C35.7027 5.81943 35.5445 5.70081 35.3871 5.70081C35.229 5.70081 35.0708 5.81982 35.0708 5.9776C35.0708 6.13577 35.229 6.29432 35.3871 6.29432C35.5445 6.29432 35.7027 6.13577 35.7027 5.9776H35.3871Z" fill="#FDF8F1"/>
<path fill-rule="evenodd" clip-rule="evenodd" d="M35.3875 5.97749H35.6244C35.6244 5.85886 35.5058 5.74023 35.3875 5.74023C35.2681 5.74023 35.1499 5.85886 35.1499 5.97749C35.1499 6.13566 35.2685 6.25467 35.3875 6.25467C35.5062 6.25467 35.6244 6.13566 35.6244 5.97749H35.3875Z" fill="#FDF8F3"/>
<path fill-rule="evenodd" clip-rule="evenodd" d="M35.3875 5.9775H35.5849C35.5849 5.89841 35.5062 5.77979 35.3875 5.77979C35.2682 5.77979 35.1895 5.89841 35.1895 5.9775C35.1895 6.09612 35.2682 6.17521 35.3875 6.17521C35.5062 6.17521 35.5849 6.09612 35.5849 5.9775H35.3875Z" fill="#FDF8F5"/>
<path fill-rule="evenodd" clip-rule="evenodd" d="M35.3872 5.97751H35.5446C35.5446 5.89843 35.4659 5.85889 35.3872 5.85889C35.3077 5.85889 35.229 5.89843 35.229 5.97751C35.229 6.0566 35.3077 6.13568 35.3872 6.13568C35.4659 6.13568 35.5446 6.0566 35.5446 5.97751H35.3872Z" fill="#FEFBF6"/>
<path fill-rule="evenodd" clip-rule="evenodd" d="M35.3875 5.97752H35.4662C35.4662 5.93798 35.4262 5.89844 35.3875 5.89844C35.3475 5.89844 35.2681 5.93798 35.2681 5.97752C35.2681 6.0566 35.3475 6.09615 35.3875 6.09615C35.4266 6.09615 35.4662 6.0566 35.4662 5.97752H35.3875Z" fill="#FFFFFB"/>
<path fill-rule="evenodd" clip-rule="evenodd" d="M35.3876 5.97753H35.4267C35.4267 5.97753 35.4267 5.93799 35.3876 5.93799C35.3477 5.93799 35.3477 5.97753 35.3477 5.97753C35.3477 6.01707 35.3477 6.05661 35.3876 6.05661C35.4267 6.05661 35.4267 6.01707 35.4267 5.97753H35.3876Z" fill="white"/>
<path fill-rule="evenodd" clip-rule="evenodd" d="M45.7105 7.79725L42.9022 0.677734H40.608L45.1173 11.5545H46.2249L50.8129 0.677734H48.5583L45.7105 7.79725ZM51.7623 11.2781H57.6161V9.49795H53.8189V6.65015H57.4576V4.83082H53.8189V2.49706H57.6161V0.677734H51.7623V11.2781ZM65.8033 3.80234C65.8033 1.82484 64.4581 0.677734 62.046 0.677734H59.0001V11.2777H61.0567V7.04557H61.3335L64.1813 11.2777H66.7128L63.3904 6.80793C64.9326 6.49198 65.8033 5.42395 65.8033 3.80234V3.80234ZM61.6498 5.5825H61.0567V2.33928H61.6894C62.9946 2.33928 63.6665 2.89287 63.6665 3.92135C63.6669 4.98899 62.995 5.5825 61.6498 5.5825V5.5825ZM0.735981 14.3904V15.3402H1.90881V15.7245H0.735981V17.3791H0.314453V14.0058H1.9472V14.3904H0.735981ZM3.87248 14.0058H4.2944V17.3791H3.87248V14.0058ZM6.33101 13.8438L8.86095 16.4985V14.0058H9.28248V17.5181L6.74985 14.8649V17.3791H6.33101V13.8438V13.8438ZM13.1826 16.1495H11.9809L12.5814 14.7836L13.1826 16.1495ZM13.3553 16.5342L13.74 17.3791H14.1938L12.5818 13.8626L10.9705 17.3791H11.4224L11.8082 16.5342H13.3553V16.5342ZM15.881 13.8438L18.4137 16.4985V14.0058H18.8356V17.5181L16.2999 14.8649V17.3791H15.881V13.8438V13.8438ZM23.3349 14.6507C23.095 14.435 22.7625 14.3194 22.4443 14.3194C21.6899 14.3194 21.1125 14.9502 21.1125 15.6976C21.1125 16.4359 21.6841 17.0663 22.4366 17.0663C22.7683 17.0663 23.0846 16.9419 23.3346 16.7173V17.2148C23.0645 17.3678 22.7597 17.4491 22.4493 17.4509C21.4853 17.4509 20.6898 16.6862 20.6898 15.7103C20.6898 14.7122 21.4907 13.9328 22.4861 13.9328C22.7821 13.9328 23.0812 14.0058 23.3342 14.162V14.6507H23.3349V14.6507ZM25.271 14.0058H25.6902V17.3791H25.271V14.0058ZM29.6202 16.1495H28.419L29.0225 14.7836L29.6202 16.1495V16.1495ZM29.7934 16.5342L30.1792 17.3791H30.631L29.0225 13.8626L27.4105 17.3791H27.8612L28.2458 16.5342H29.7934V16.5342ZM32.7794 16.9964H33.8048V17.3791H32.3602V14.0058H32.7794V16.9964ZM39.7653 14.6461C39.6432 14.4346 39.4812 14.3275 39.224 14.3275C38.9549 14.3275 38.6585 14.5106 38.6585 14.807C38.6585 15.0699 38.9219 15.2097 39.1307 15.2899L39.3706 15.3848C39.8513 15.5717 40.2091 15.8366 40.2091 16.3998C40.2091 17.0137 39.7338 17.4509 39.1307 17.4509C38.584 17.4509 38.159 17.049 38.0892 16.5073L38.5134 16.4186C38.508 16.7891 38.8036 17.0578 39.1641 17.0578C39.5277 17.0578 39.7864 16.7545 39.7864 16.3998C39.7864 16.0382 39.4962 15.8808 39.206 15.7591L38.9741 15.6619C38.5879 15.4961 38.2393 15.2773 38.2393 14.807C38.2393 14.2603 38.7222 13.9328 39.2336 13.9328C39.6079 13.9328 39.9173 14.1175 40.0997 14.4434L39.7653 14.6461V14.6461ZM42.1137 14.0058H43.9272V14.3904H42.5356V15.336H43.8892V15.7203H42.5356V16.9964H43.9272V17.3791H42.1137V14.0058V14.0058ZM46.3155 14.3816H46.4234C46.8434 14.3816 47.3432 14.4576 47.3432 14.9866C47.3432 15.523 46.8752 15.6028 46.4464 15.6028H46.3151V14.3816H46.3155V14.3816ZM46.9274 15.9126C47.415 15.8535 47.7371 15.4519 47.7371 14.9678C47.7371 14.6461 47.5751 14.3275 47.2925 14.1616C47.0249 14.01 46.7025 14.0058 46.4042 14.0058H45.8943V17.3791H46.3159V15.9537H46.489L47.4826 17.3791H47.9916L46.9274 15.9126V15.9126ZM50.882 16.5027L51.8844 14.0058H52.3463L50.882 17.56L49.4151 14.0058H49.8762L50.882 16.5027ZM54.0642 14.0058H54.4854V17.3791H54.0642V14.0058ZM59.022 14.6507C58.779 14.435 58.4461 14.3194 58.1267 14.3194C57.3731 14.3194 56.7957 14.9502 56.7957 15.6976C56.7957 16.4359 57.367 17.0663 58.119 17.0663C58.4511 17.0663 58.7705 16.9419 59.022 16.7173V17.2148C58.751 17.3676 58.4455 17.4488 58.1344 17.4509C57.1731 17.4509 56.3738 16.6862 56.3738 15.7103C56.3738 14.7122 57.1785 13.9328 58.1697 13.9328C58.4657 13.9328 58.7652 14.0058 59.0224 14.162V14.6507H59.022V14.6507ZM60.9653 14.0058H62.7785V14.3904H61.3876V15.336H62.7386V15.7203H61.3876V16.9964H62.7785V17.3791H60.9653V14.0058V14.0058ZM66.2409 14.6461C66.1181 14.4346 65.9568 14.3275 65.7019 14.3275C65.4344 14.3275 65.138 14.5106 65.138 14.807C65.138 15.0699 65.399 15.2097 65.6075 15.2899L65.8513 15.3848C66.3281 15.5717 66.6859 15.8366 66.6859 16.3998C66.6859 17.0137 66.2114 17.4509 65.6075 17.4509C65.0631 17.4509 64.6351 17.049 64.5667 16.5073L64.9898 16.4186C64.9844 16.7891 65.2823 17.0578 65.6436 17.0578C66.0064 17.0578 66.2667 16.7545 66.2667 16.3998C66.2667 16.0382 65.9734 15.8808 65.6839 15.7591L65.4516 15.6619C65.0654 15.4961 64.7168 15.2773 64.7168 14.807C64.7168 14.2603 65.2006 13.9328 65.7111 13.9328C66.0855 13.9328 66.3956 14.1175 66.5803 14.4434L66.2409 14.6461V14.6461ZM67.0118 1.61792C67.0118 1.69931 66.9561 1.7423 66.8433 1.7423H66.8049V1.49929H66.846C66.9581 1.49967 67.0118 1.53807 67.0118 1.61792ZM67.3427 2.26019L67.0352 1.87398C67.1665 1.8402 67.2422 1.74422 67.2422 1.61216C67.2422 1.42942 67.1139 1.32615 66.8859 1.32615H66.5884V2.26019H66.8087V1.89855L67.0706 2.26019H67.3427ZM67.7355 1.79144C67.7355 1.34535 67.3727 0.977566 66.9323 0.977566C66.8252 0.976855 66.7189 0.997407 66.6198 1.03803C66.5206 1.07866 66.4305 1.13855 66.3546 1.21424C66.2787 1.28993 66.2186 1.37992 66.1777 1.479C66.1369 1.57808 66.1161 1.68427 66.1166 1.79144C66.1166 2.24483 66.4809 2.60647 66.9323 2.60647C67.3727 2.60609 67.7355 2.23869 67.7355 1.79144ZM67.5712 1.79375C67.5712 2.15999 67.2832 2.46021 66.9285 2.46021C66.5715 2.46021 66.2778 2.16153 66.2778 1.79375C66.2778 1.42174 66.5688 1.12614 66.9285 1.12614C67.2832 1.12614 67.5712 1.42635 67.5712 1.79375Z" fill="white"/>
<path fill-rule="evenodd" clip-rule="evenodd" d="M45.7105 7.79725L42.9022 0.677734H40.608L45.1173 11.5545H46.2249L50.8129 0.677734H48.5583L45.7105 7.79725ZM51.7623 11.2781H57.6161V9.49795H53.8189V6.65015H57.4576V4.83082H53.8189V2.49706H57.6161V0.677734H51.7623V11.2781ZM65.8033 3.80234C65.8033 1.82484 64.4581 0.677734 62.046 0.677734H59.0001V11.2777H61.0567V7.04557H61.3335L64.1813 11.2777H66.7128L63.3904 6.80793C64.9326 6.49198 65.8033 5.42395 65.8033 3.80234V3.80234ZM61.6498 5.5825H61.0567V2.33928H61.6894C62.9946 2.33928 63.6665 2.89287 63.6665 3.92135C63.6669 4.98899 62.995 5.5825 61.6498 5.5825V5.5825ZM0.735981 14.3904V15.3402H1.90881V15.7245H0.735981V17.3791H0.314453V14.0058H1.9472V14.3904H0.735981ZM3.87248 14.0058H4.2944V17.3791H3.87248V14.0058ZM6.33101 13.8438L8.86095 16.4985V14.0058H9.28248V17.5181L6.74985 14.8649V17.3791H6.33101V13.8438V13.8438ZM13.1826 16.1495H11.9809L12.5814 14.7836L13.1826 16.1495ZM13.3553 16.5342L13.74 17.3791H14.1938L12.5818 13.8626L10.9705 17.3791H11.4224L11.8082 16.5342H13.3553V16.5342ZM15.881 13.8438L18.4137 16.4985V14.0058H18.8356V17.5181L16.2999 14.8649V17.3791H15.881V13.8438V13.8438ZM23.3349 14.6507C23.095 14.435 22.7625 14.3194 22.4443 14.3194C21.6899 14.3194 21.1125 14.9502 21.1125 15.6976C21.1125 16.4359 21.6841 17.0663 22.4366 17.0663C22.7683 17.0663 23.0846 16.9419 23.3346 16.7173V17.2148C23.0645 17.3678 22.7597 17.4491 22.4493 17.4509C21.4853 17.4509 20.6898 16.6862 20.6898 15.7103C20.6898 14.7122 21.4907 13.9328 22.4861 13.9328C22.7821 13.9328 23.0812 14.0058 23.3342 14.162V14.6507H23.3349V14.6507ZM25.271 14.0058H25.6902V17.3791H25.271V14.0058ZM29.6202 16.1495H28.419L29.0225 14.7836L29.6202 16.1495V16.1495ZM29.7934 16.5342L30.1792 17.3791H30.631L29.0225 13.8626L27.4105 17.3791H27.8612L28.2458 16.5342H29.7934V16.5342ZM32.7794 16.9964H33.8048V17.3791H32.3602V14.0058H32.7794V16.9964ZM39.7653 14.6461C39.6432 14.4346 39.4812 14.3275 39.224 14.3275C38.9549 14.3275 38.6585 14.5106 38.6585 14.807C38.6585 15.0699 38.9219 15.2097 39.1307 15.2899L39.3706 15.3848C39.8513 15.5717 40.2091 15.8366 40.2091 16.3998C40.2091 17.0137 39.7338 17.4509 39.1307 17.4509C38.584 17.4509 38.159 17.049 38.0892 16.5073L38.5134 16.4186C38.508 16.7891 38.8036 17.0578 39.1641 17.0578C39.5277 17.0578 39.7864 16.7545 39.7864 16.3998C39.7864 16.0382 39.4962 15.8808 39.206 15.7591L38.9741 15.6619C38.5879 15.4961 38.2393 15.2773 38.2393 14.807C38.2393 14.2603 38.7222 13.9328 39.2336 13.9328C39.6079 13.9328 39.9173 14.1175 40.0997 14.4434L39.7653 14.6461V14.6461ZM42.1137 14.0058H43.9272V14.3904H42.5356V15.336H43.8892V15.7203H42.5356V16.9964H43.9272V17.3791H42.1137V14.0058V14.0058ZM46.3155 14.3816H46.4234C46.8434 14.3816 47.3432 14.4576 47.3432 14.9866C47.3432 15.523 46.8752 15.6028 46.4464 15.6028H46.3151V14.3816H46.3155V14.3816ZM46.9274 15.9126C47.415 15.8535 47.7371 15.4519 47.7371 14.9678C47.7371 14.6461 47.5751 14.3275 47.2925 14.1616C47.0249 14.01 46.7025 14.0058 46.4042 14.0058H45.8943V17.3791H46.3159V15.9537H46.489L47.4826 17.3791H47.9916L46.9274 15.9126V15.9126ZM50.882 16.5027L51.8844 14.0058H52.3463L50.882 17.56L49.4151 14.0058H49.8762L50.882 16.5027ZM54.0642 14.0058H54.4854V17.3791H54.0642V14.0058ZM59.022 14.6507C58.779 14.435 58.4461 14.3194 58.1267 14.3194C57.3731 14.3194 56.7957 14.9502 56.7957 15.6976C56.7957 16.4359 57.367 17.0663 58.119 17.0663C58.4511 17.0663 58.7705 16.9419 59.022 16.7173V17.2148C58.751 17.3676 58.4455 17.4488 58.1344 17.4509C57.1731 17.4509 56.3738 16.6862 56.3738 15.7103C56.3738 14.7122 57.1785 13.9328 58.1697 13.9328C58.4657 13.9328 58.7652 14.0058 59.0224 14.162V14.6507H59.022V14.6507ZM60.9653 14.0058H62.7785V14.3904H61.3876V15.336H62.7386V15.7203H61.3876V16.9964H62.7785V17.3791H60.9653V14.0058V14.0058ZM66.2409 14.6461C66.1181 14.4346 65.9568 14.3275 65.7019 14.3275C65.4344 14.3275 65.138 14.5106 65.138 14.807C65.138 15.0699 65.399 15.2097 65.6075 15.2899L65.8513 15.3848C66.3281 15.5717 66.6859 15.8366 66.6859 16.3998C66.6859 17.0137 66.2114 17.4509 65.6075 17.4509C65.0631 17.4509 64.6351 17.049 64.5667 16.5073L64.9898 16.4186C64.9844 16.7891 65.2823 17.0578 65.6436 17.0578C66.0064 17.0578 66.2667 16.7545 66.2667 16.3998C66.2667 16.0382 65.9734 15.8808 65.6839 15.7591L65.4516 15.6619C65.0654 15.4961 64.7168 15.2773 64.7168 14.807C64.7168 14.2603 65.2006 13.9328 65.7111 13.9328C66.0855 13.9328 66.3956 14.1175 66.5803 14.4434L66.2409 14.6461V14.6461ZM67.0118 1.61792C67.0118 1.69931 66.9561 1.7423 66.8433 1.7423H66.8049V1.49929H66.846C66.9581 1.49967 67.0118 1.53807 67.0118 1.61792ZM67.3427 2.26019L67.0352 1.87398C67.1665 1.8402 67.2422 1.74422 67.2422 1.61216C67.2422 1.42942 67.1139 1.32615 66.8859 1.32615H66.5884V2.26019H66.8087V1.89855L67.0706 2.26019H67.3427ZM67.7355 1.79144C67.7355 1.34535 67.3727 0.977566 66.9323 0.977566C66.8252 0.976855 66.7189 0.997407 66.6198 1.03803C66.5206 1.07866 66.4305 1.13855 66.3546 1.21424C66.2787 1.28993 66.2186 1.37992 66.1777 1.479C66.1369 1.57808 66.1161 1.68427 66.1166 1.79144C66.1166 2.24483 66.4809 2.60647 66.9323 2.60647C67.3727 2.60609 67.7355 2.23869 67.7355 1.79144ZM67.5712 1.79375C67.5712 2.15999 67.2832 2.46021 66.9285 2.46021C66.5715 2.46021 66.2778 2.16153 66.2778 1.79375C66.2778 1.42174 66.5688 1.12614 66.9285 1.12614C67.2832 1.12614 67.5712 1.42635 67.5712 1.79375Z" fill="white"/>
</svg>
