<svg width="53" height="53" viewBox="0 0 53 53" fill="none" xmlns="http://www.w3.org/2000/svg">
<path fill-rule="evenodd" clip-rule="evenodd" d="M26.3979 3.50964C23.642 3.50964 18.4359 3.81485 15.3737 4.93366C10.7802 6.45968 9.04466 10.0201 8.63634 13.3771C8.22803 16.7341 8.22803 22.7362 8.22803 26.5001C8.22803 30.2637 8.22803 36.2658 8.63634 39.6233C9.04466 42.9803 10.7802 46.5407 15.3737 48.0665C18.4359 49.1856 23.846 49.4908 26.6022 49.4908C29.3584 49.4908 34.5644 49.1858 37.6264 48.0665C42.2196 46.5407 43.9554 42.9803 44.3634 39.6233C44.772 36.2658 44.772 30.264 44.772 26.5001C44.772 22.7362 44.772 16.7343 44.3634 13.3771C43.9554 10.0201 42.2196 6.45968 37.6264 4.93366C34.5644 3.81485 29.1543 3.50964 26.3979 3.50964V3.50964Z" fill="white" stroke="black" stroke-width="0.610409" stroke-miterlimit="2.613"/>
<path fill-rule="evenodd" clip-rule="evenodd" d="M33.8497 9.81689C33.2992 9.81689 31.9976 10.2007 31.0426 11.0886V9.81689H25.6837C25.1332 9.81689 23.8315 10.2007 22.8766 11.0886V9.81689H17.5174C16.5985 9.81689 13.5874 10.8851 13.5874 13.5805V35.7571H18.4872C19.3742 35.7571 20.7737 35.3548 21.7537 34.4307V35.7571H26.6535C27.5402 35.7571 28.9403 35.3548 29.9197 34.4307V35.7571H34.8195C36.2993 35.7571 39.2086 34.6385 39.2086 31.8411V9.81689H33.8497V9.81689Z" fill="white" stroke="black" stroke-width="0.20347" stroke-miterlimit="2.613"/>
<path fill-rule="evenodd" clip-rule="evenodd" d="M31.0425 34.6385V13.4788C31.0425 12.2583 32.4714 10.9354 34.1047 10.9354H38.0861V31.9423C38.0861 33.214 36.4014 34.6383 34.8705 34.6383H31.0425V34.6385Z" fill="black" stroke="black" stroke-width="0.305205" stroke-miterlimit="2.613"/>
<path fill-rule="evenodd" clip-rule="evenodd" d="M31.1958 20.1675H36.8611C37.678 20.1675 37.9587 20.8288 37.984 21.2613C38.0098 21.6935 37.8567 22.126 37.2441 22.4056C38.061 22.6347 38.3159 22.9652 38.3159 23.7026C38.3159 24.313 38.0098 25.1269 36.9889 25.1269H31.1961V20.1675H31.1958Z" fill="white"/>
<path fill-rule="evenodd" clip-rule="evenodd" d="M35.2536 20.7559C35.4352 20.7556 35.6094 20.8274 35.738 20.9555C35.8666 21.0836 35.939 21.2576 35.9394 21.4391C35.9394 21.8167 35.6323 22.0971 35.2536 22.0971H33.3649V20.7526L35.2536 20.7559ZM35.2215 22.8241C35.7048 22.8241 36.0969 23.189 36.0969 23.6707C36.0969 24.1524 35.7048 24.5429 35.2215 24.5429H33.3649V22.8126L35.2215 22.8241V22.8241ZM24.0018 38.2537H27.9227C28.4657 38.2537 28.6016 38.6936 28.6181 38.981C28.6351 39.2689 28.4993 39.5562 28.0923 39.7421C28.6354 39.8947 28.8215 40.1144 28.8215 40.6052C28.8215 41.0107 28.6013 41.5518 27.9224 41.5518H24.0015V38.2537H24.0018V38.2537ZM18.818 39.8776C18.818 40.9087 19.6153 41.501 20.4471 41.501H23.6388V40.8999C22.8511 41.1996 22.195 41.2131 21.8557 41.2131C21.5164 41.2131 20.4471 41.061 20.4471 39.8776C20.4471 38.6934 21.5161 38.5416 21.8557 38.5416C22.1953 38.5416 22.8255 38.5551 23.6388 38.8798V38.2537H20.4471C19.6156 38.2537 18.818 38.8454 18.818 39.8776ZM18.4124 38.2537H16.7827V40.2832C16.7827 40.9087 16.3246 41.281 15.7307 41.281C15.1368 41.281 14.5597 40.8754 14.4412 40.5543H13.7114C13.7452 40.8922 14.4071 41.7374 16.0192 41.7374C16.8168 41.7374 18.4124 41.5516 18.4124 40.5372V38.2537V38.2537ZM32.0792 40.1001V40.5205C32.0792 41.116 31.8329 41.4023 31.2714 41.4023C30.8304 41.4023 30.4336 41.201 30.4336 40.471V39.0211C30.4336 38.2914 30.8304 38.0898 31.2714 38.0898C31.7564 38.0898 32.0792 38.251 32.0792 38.9406V39.2515H31.4521V38.8509C31.4521 38.7209 31.4031 38.6002 31.2588 38.6002C31.1224 38.6002 31.0611 38.7209 31.0611 38.8509V40.6414C31.0611 40.7715 31.1224 40.8922 31.2588 40.8922C31.4031 40.8922 31.4521 40.7715 31.4521 40.6414L31.4559 40.1001H32.0792V40.1001ZM33.5335 38.1528L34.0427 41.3396H33.4958L33.3685 40.5559H32.9443L32.8359 41.3396H32.2747L32.7598 38.1528H33.5335Z" fill="black"/>
<path fill-rule="evenodd" clip-rule="evenodd" d="M33.2949 40.0731L33.1401 38.6543H33.1321L33.0161 40.0731H33.2949Z" fill="white"/>
<path fill-rule="evenodd" clip-rule="evenodd" d="M34.2466 41.3396V38.1528H34.9164C35.5496 38.1528 35.8884 38.2243 35.8884 38.896C35.8884 39.2939 35.7784 39.554 35.4174 39.6211V39.6296C35.738 39.6387 35.8884 39.7729 35.8884 40.2296V40.8966C35.8884 41.0218 35.9082 41.2104 35.9373 41.3396H35.3063C35.2772 41.1937 35.2621 41.0454 35.2612 40.8966V40.2211C35.2612 39.9973 35.1407 39.8854 35.0206 39.8854H34.874V41.3396H34.2466V41.3396Z" fill="black"/>
<path fill-rule="evenodd" clip-rule="evenodd" d="M34.8735 39.4281C35.2123 39.4281 35.2607 39.3164 35.2607 39.0167C35.2607 38.7209 35.2167 38.6093 34.8735 38.6093V39.4281V39.4281Z" fill="white"/>
<path fill-rule="evenodd" clip-rule="evenodd" d="M36.1904 38.1528H36.8762C37.6216 38.1528 37.8358 38.287 37.8358 39.2403V40.3773C37.8358 40.9813 37.714 41.3396 36.8762 41.3396H36.1904V38.1528Z" fill="black"/>
<path fill-rule="evenodd" clip-rule="evenodd" d="M36.8047 40.8832C37.1806 40.8832 37.2086 40.7446 37.2086 40.4402V39.1287C37.2086 38.7033 37.1924 38.6093 36.8047 38.6093V40.8832Z" fill="white"/>
<path fill-rule="evenodd" clip-rule="evenodd" d="M39.0687 39.0019V38.7704C39.0817 38.6695 38.986 38.5749 38.854 38.5749C38.7096 38.5749 38.686 38.6695 38.6777 38.7827C38.6384 39.3186 39.7341 39.5405 39.7341 40.5249C39.7341 41.1248 39.4452 41.4023 38.8884 41.4023C38.4636 41.4023 38.0506 41.1138 38.0506 40.5634V40.2524H38.6648V40.6503C38.6648 40.8383 38.7809 40.8919 38.9049 40.8919C39.0135 40.8919 39.1325 40.8383 39.1325 40.6503C39.1325 39.7503 38.0503 39.7624 38.0503 38.8867C38.0503 38.3093 38.3907 38.0898 38.904 38.0898C39.353 38.0898 39.6698 38.26 39.6698 38.7929V39.0019H39.0687Z" fill="black"/>
<path fill-rule="evenodd" clip-rule="evenodd" d="M14.7104 34.6385V13.4788C14.7104 12.2583 16.1397 10.9354 17.7727 10.9354H21.7538V31.9423C21.7538 33.214 20.0697 34.6383 18.5384 34.6383H14.7104V34.6385ZM22.8767 34.6385V13.4788C22.8767 12.2583 24.3057 10.9354 25.9389 10.9354H29.9198V31.9423C29.9198 33.214 28.2357 34.6383 26.7047 34.6383H22.8767V34.6385Z" fill="black" stroke="black" stroke-width="0.305205" stroke-miterlimit="2.613"/>
<path fill-rule="evenodd" clip-rule="evenodd" d="M23.1317 22.6091C23.1317 24.1604 24.3311 25.0505 25.5816 25.0505H29.7667V24.2622C28.9757 24.5929 28.2105 24.6182 27.6996 24.6182C27.1895 24.6182 25.5813 24.3892 25.5813 22.6091C25.5813 20.829 27.1893 20.6 27.6996 20.6C28.2102 20.6 28.9757 20.6253 29.7667 20.9561V20.1675H25.5816C24.3311 20.1675 23.1317 21.0575 23.1317 22.6091V22.6091ZM21.6004 20.1675H19.1506V23.2195C19.1506 24.1604 18.4615 24.72 17.5684 24.72C16.6751 24.72 15.8076 24.1096 15.5524 23.3974H14.4551C14.5827 24.1349 15.578 25.4066 18.0023 25.4066C19.2017 25.4066 21.6004 25.1269 21.6004 23.6009V20.1675ZM26.8533 38.6453C27.1051 38.6453 27.3091 38.8482 27.3091 39.0995C27.3091 39.3503 27.1051 39.5367 26.8533 39.5367H25.5975V38.6431L26.8533 38.6453ZM26.8318 40.0206C27.1535 40.0206 27.4139 40.2634 27.4139 40.5835C27.4138 40.6598 27.3986 40.7353 27.3693 40.8058C27.34 40.8762 27.2971 40.9402 27.243 40.994C27.189 41.0479 27.1248 41.0906 27.0543 41.1196C26.9837 41.1487 26.9081 41.1635 26.8318 41.1634H25.5975V40.0124L26.8318 40.0206Z" fill="white"/>
</svg>
