<svg width="56" height="35" viewBox="0 0 56 35" fill="none" xmlns="http://www.w3.org/2000/svg">
<g clip-path="url(#clip0_2423_218)">
<path d="M10.9466 0.00012207H24.8981C26.8456 0.00012207 28.0569 1.58751 27.6026 3.54149L21.1072 31.429C20.6488 33.3761 18.6989 34.9649 16.75 34.9649H2.79979C0.854993 34.9649 -0.359014 33.3761 0.0953036 31.429L6.59347 3.54149C7.04779 1.58751 8.99666 0.00012207 10.9466 0.00012207Z" fill="#E21836"/>
<path d="M23.7372 0.00012207H39.7811C41.7283 0.00012207 40.8503 1.58751 40.3922 3.54149L33.8978 31.429C33.4421 33.3761 33.5843 34.9649 31.633 34.9649H15.5891C13.6378 34.9649 12.4303 33.3761 12.8887 31.429L19.3827 3.54149C19.8439 1.58751 21.7887 0.00012207 23.7372 0.00012207Z" fill="#00447C"/>
<path d="M39.1447 0.00012207H53.0963C55.0465 0.00012207 56.2578 1.58751 55.7998 3.54149L49.3053 31.429C48.8469 33.3761 46.8957 34.9649 44.9458 34.9649H31.0007C29.0494 34.9649 27.8392 33.3761 28.2962 31.429L34.7916 3.54149C35.246 1.58751 37.1935 0.00012207 39.1447 0.00012207Z" fill="#007B84"/>
<path d="M14.5903 8.9373C13.1556 8.95192 12.7319 8.9373 12.5965 8.90534C12.5445 9.15256 11.5763 13.6185 11.5736 13.6223C11.3652 14.5258 11.2135 15.1699 10.6983 15.5858C10.4059 15.8276 10.0644 15.9442 9.66861 15.9442C9.03236 15.9442 8.6617 15.6283 8.59947 15.0291L8.58757 14.8234C8.58757 14.8234 8.7814 13.6131 8.7814 13.6063C8.7814 13.6063 9.79749 9.53648 9.97943 8.99851C9.98895 8.96791 9.99167 8.95192 9.99405 8.9373C8.01627 8.95464 7.66567 8.9373 7.64153 8.90534C7.62826 8.9492 7.5793 9.20153 7.5793 9.20153L6.54178 13.7886L6.45268 14.1776L6.28027 15.4501C6.28027 15.8276 6.35441 16.1357 6.50199 16.3961C6.97467 17.2221 8.323 17.3459 9.08575 17.3459C10.0685 17.3459 10.9904 17.1371 11.6134 16.7559C12.6948 16.1169 12.9777 15.1182 13.23 14.2306L13.347 13.7753C13.347 13.7753 14.3937 9.54839 14.5716 8.99851C14.5784 8.96791 14.5811 8.95192 14.5903 8.9373ZM18.1516 12.3472C17.8993 12.3472 17.4382 12.4084 17.024 12.6114C16.8737 12.6886 16.7315 12.7777 16.5816 12.8665L16.7169 12.3778L16.6428 12.2955C15.7644 12.4734 15.5678 12.4972 14.7565 12.6114L14.6884 12.6567C14.5943 13.4378 14.5106 14.025 14.1614 15.5604C14.0284 16.1263 13.8903 16.6976 13.7519 17.2621L13.7893 17.3338C14.6208 17.2899 14.8731 17.2899 15.5957 17.3018L15.6542 17.2383C15.746 16.768 15.7579 16.6578 15.9613 15.7053C16.0568 15.2537 16.2561 14.2614 16.3544 13.9081C16.535 13.8244 16.7132 13.7421 16.8832 13.7421C17.2882 13.7421 17.2389 14.0954 17.2232 14.2362C17.2059 14.4726 17.0583 15.2445 16.907 15.9073L16.806 16.3351C16.7356 16.651 16.6584 16.958 16.588 17.2712L16.6186 17.3338C17.4382 17.2899 17.6881 17.2899 18.3879 17.3018L18.4702 17.2383C18.5967 16.5037 18.6338 16.3072 18.8582 15.2377L18.9711 14.7463C19.1905 13.7846 19.3007 13.297 19.1347 12.8998C18.9592 12.4547 18.5382 12.3472 18.1516 12.3472ZM22.13 13.3541C21.6944 13.4377 21.4166 13.4935 21.1404 13.5295C20.8667 13.5734 20.5997 13.6132 20.1788 13.6717L20.1454 13.702L20.1148 13.7261C20.071 14.0396 20.0404 14.3107 19.9822 14.6293C19.9329 14.9588 19.8571 15.3332 19.7336 15.8712C19.6381 16.283 19.5888 16.4265 19.5343 16.5714C19.4813 16.7162 19.4228 16.857 19.3153 17.262L19.3405 17.2994L19.3616 17.3338C19.755 17.3151 20.0125 17.3018 20.277 17.2994C20.5413 17.2899 20.815 17.2994 21.2387 17.3018L21.2758 17.2715L21.3156 17.2382C21.3768 16.873 21.386 16.7747 21.4234 16.5965C21.4604 16.4054 21.5244 16.1409 21.6811 15.4342C21.7553 15.1023 21.8379 14.7714 21.9148 14.4327C21.9947 14.0954 22.0783 13.7632 22.1579 13.4313L22.146 13.3911L22.13 13.3541ZM22.1393 11.9965C21.7435 11.7629 21.0487 11.837 20.5811 12.1597C20.1149 12.476 20.0619 12.9249 20.4563 13.1615C20.8454 13.3887 21.5428 13.321 22.0063 12.9956C22.4715 12.6725 22.5297 12.2277 22.1393 11.9965ZM24.5331 17.407C25.334 17.407 26.1549 17.1863 26.7728 16.5313C27.2482 16.0002 27.4661 15.2099 27.5416 14.8844C27.7875 13.8058 27.596 13.3022 27.3556 12.9954C26.9904 12.5278 26.345 12.3779 25.6754 12.3779C25.2728 12.3779 24.3138 12.4177 23.5646 13.1083C23.0267 13.6065 22.7781 14.2825 22.6281 14.9307C22.4768 15.5911 22.3027 16.7799 23.396 17.2223C23.7333 17.3672 24.2196 17.407 24.5331 17.407ZM24.4706 14.98C24.6552 14.1632 24.8732 13.4776 25.4295 13.4776C25.8655 13.4776 25.8971 13.9877 25.7033 14.8072C25.6686 14.9892 25.5094 15.6656 25.2942 15.9536C25.1439 16.1661 24.966 16.295 24.7695 16.295C24.711 16.295 24.3631 16.295 24.3577 15.7785C24.3549 15.5234 24.407 15.2629 24.4706 14.98ZM29.5435 17.3019L29.6061 17.2384C29.6949 16.7681 29.7095 16.6575 29.9061 15.7054C30.0043 15.2538 30.2077 14.2615 30.3032 13.9082C30.4841 13.8242 30.6593 13.7419 30.8347 13.7419C31.237 13.7419 31.1881 14.0952 31.1721 14.236C31.1575 14.4727 31.0099 15.2443 30.8558 15.907L30.7603 16.3348C30.6872 16.6511 30.6076 16.9578 30.5372 17.2713L30.5678 17.3339C31.3901 17.29 31.6305 17.29 32.3344 17.3019L32.4194 17.2384C32.5429 16.5035 32.5762 16.3069 32.8074 15.2378L32.9176 14.7461C33.138 13.7844 33.2495 13.2971 33.0863 12.8999C32.9057 12.4548 32.482 12.3473 32.1008 12.3473C31.8481 12.3473 31.3846 12.4082 30.9728 12.6115C30.8256 12.6887 30.678 12.7775 30.5331 12.8666L30.6593 12.3779L30.5916 12.2953C29.7136 12.4735 29.5129 12.4973 28.7026 12.6115L28.6404 12.6568C28.5421 13.4379 28.4622 14.0248 28.1129 15.5605C27.98 16.1264 27.8419 16.6977 27.7038 17.2622L27.7409 17.3339C28.5737 17.29 28.8223 17.29 29.5435 17.3019ZM35.5848 17.3337C35.6365 17.0814 35.9436 15.5858 35.9463 15.5858C35.9463 15.5858 36.2078 14.4885 36.2238 14.4487C36.2238 14.4487 36.3061 14.3344 36.3884 14.2892H36.5095C37.6517 14.2892 38.9416 14.2892 39.9526 13.5455C40.6405 13.0354 41.1108 12.2822 41.3206 11.3667C41.375 11.1423 41.4151 10.8754 41.4151 10.6084C41.4151 10.2578 41.3448 9.91096 41.1414 9.63993C40.6259 8.91867 39.5992 8.9054 38.4141 8.89996C38.4104 8.89996 37.8299 8.9054 37.8299 8.9054C36.3129 8.92411 35.7046 8.91867 35.4546 8.88806C35.4335 8.99858 35.3937 9.19513 35.3937 9.19513C35.3937 9.19513 34.8503 11.7136 34.8503 11.7177C34.8503 11.7177 33.5499 17.0722 33.4887 17.3246C34.8133 17.3086 35.3563 17.3086 35.5848 17.3337ZM36.5918 12.8599C36.5918 12.8599 37.1695 10.3466 37.1668 10.3561L37.1855 10.2272L37.1937 10.1289L37.4246 10.1527C37.4246 10.1527 38.6161 10.2551 38.644 10.2578C39.1143 10.4397 39.3081 10.9087 39.1728 11.5208C39.0494 12.0802 38.6865 12.5505 38.2203 12.7776C37.8364 12.9701 37.3661 12.9861 36.8815 12.9861H36.568L36.5918 12.8599ZM40.189 15.0266C40.0363 15.6774 39.8609 16.8663 40.9487 17.29C41.2956 17.4376 41.6064 17.4814 41.9223 17.4654C42.2559 17.4474 42.565 17.2801 42.8513 17.0394C42.8255 17.1383 42.7997 17.2373 42.7738 17.3366L42.8231 17.4002C43.6056 17.3672 43.8484 17.3672 44.6962 17.3736L44.773 17.3151C44.8968 16.5874 45.0134 15.8808 45.3351 14.4886C45.4919 13.8217 45.6483 13.1613 45.8092 12.4972L45.784 12.4241C44.9087 12.5863 44.6747 12.621 43.8328 12.7403L43.7688 12.7924C43.7603 12.86 43.7515 12.925 43.7433 12.9899C43.6124 12.7784 43.4226 12.5979 43.1299 12.4853C42.7555 12.3381 41.8761 12.5278 41.1201 13.2161C40.5889 13.7075 40.3339 14.3808 40.189 15.0266ZM42.0274 15.0663C42.2148 14.2641 42.43 13.5854 42.9877 13.5854C43.3404 13.5854 43.526 13.9108 43.4883 14.4658C43.4584 14.6042 43.426 14.7501 43.3876 14.915C43.3318 15.1534 43.2713 15.3897 43.2125 15.6264C43.1526 15.7883 43.0829 15.941 43.0064 16.0426C42.8629 16.246 42.5215 16.3722 42.3249 16.3722C42.2692 16.3722 41.925 16.3722 41.9131 15.8648C41.9104 15.6121 41.9624 15.352 42.0274 15.0663ZM51.6274 12.4176L51.5597 12.3404C50.6936 12.5159 50.5368 12.5438 49.7411 12.6512L49.6826 12.7097C49.6799 12.7192 49.6775 12.7338 49.6734 12.7471L49.6707 12.7338C49.0783 14.1005 49.0957 13.8057 48.6135 14.8817C48.6107 14.8327 48.6107 14.8021 48.608 14.7501L48.4873 12.4176L48.4115 12.3404C47.5042 12.5159 47.4828 12.5438 46.6449 12.6512L46.5796 12.7097C46.5704 12.7376 46.5704 12.7682 46.565 12.8015L46.5704 12.8134C46.6751 13.3487 46.65 13.2293 46.755 14.074C46.804 14.4885 46.8693 14.9055 46.9183 15.3149C47.0009 16.0001 47.0472 16.3374 47.1482 17.3831C46.5823 18.3169 46.4483 18.6702 45.9035 19.4898L45.9073 19.4979L45.5237 20.1046C45.4798 20.1685 45.44 20.2124 45.3843 20.2311C45.3231 20.2614 45.2435 20.2668 45.133 20.2668H44.9204L44.6045 21.3176L45.6883 21.3363C46.3245 21.3336 46.7244 21.036 46.9397 20.6361L47.6212 19.4684H47.6103L47.682 19.3861C48.1404 18.3992 51.6274 12.4176 51.6274 12.4176ZM40.189 26.218H39.7292L41.4309 20.5897H41.9954L42.1746 20.0099L42.1919 20.6547C42.1709 21.0532 42.4844 21.4065 43.308 21.348H44.2605L44.5883 20.2643H44.2299C44.0238 20.2643 43.9283 20.2122 43.9402 20.1007L43.9228 19.4447H42.159V19.4481C41.5887 19.46 39.8857 19.5029 39.5408 19.5947C39.1236 19.7021 38.6839 20.0184 38.6839 20.0184L38.8566 19.4379H37.2067L36.8629 20.5897L35.1385 26.304H34.8038L34.4757 27.38H37.762L37.6518 27.7387H39.2712L39.3786 27.38H39.833L40.189 26.218ZM38.8407 21.7333C38.5764 21.8064 38.0847 22.0281 38.0847 22.0281L38.522 20.5897H39.833L39.5167 21.6378C39.5167 21.6378 39.1117 21.6616 38.8407 21.7333ZM38.8658 23.7883C38.8658 23.7883 38.454 23.84 38.183 23.9012C37.9161 23.9821 37.4155 24.2372 37.4155 24.2372L37.8671 22.7402H39.1848L38.8658 23.7883ZM38.1313 26.2313H36.8163L37.1975 24.9679H38.5084L38.1313 26.2313ZM41.2981 22.7402H43.1936L42.9212 23.6223H41.0006L40.7122 24.5867H42.3928L41.1203 26.3785C41.0312 26.5101 40.9513 26.5567 40.8625 26.5938C40.7734 26.639 40.6564 26.692 40.5211 26.692H40.0549L39.7345 27.7483H40.954C41.5879 27.7483 41.9623 27.4599 42.2387 27.0814L43.1113 25.8871L43.2987 27.0998C43.3385 27.3269 43.5017 27.4599 43.6122 27.5116C43.7343 27.5728 43.8605 27.6779 44.0387 27.6935C44.2298 27.7017 44.3678 27.7081 44.4597 27.7081H45.0588L45.4186 26.5261H45.1823C45.0466 26.5261 44.813 26.5033 44.7732 26.4608C44.7334 26.4091 44.7334 26.3295 44.712 26.2085L44.5219 24.9931H43.7435L44.0849 24.5867H46.0018L46.2966 23.6223H44.5219L44.7984 22.7402H46.5677L46.8958 21.6524H41.6208L41.2981 22.7402ZM25.2888 26.4769L25.7312 25.0051H27.5495L27.8818 23.9105H26.0618L26.3396 23.0046H28.1181L28.4476 21.9446H23.9976L23.6749 23.0046H24.6859L24.4162 23.9105H23.4025L23.0665 25.0238H24.0772L23.4875 26.971C23.4079 27.2288 23.5249 27.327 23.5991 27.4467C23.6749 27.5634 23.7517 27.6406 23.9245 27.6844C24.1027 27.7242 24.2248 27.748 24.3907 27.748H26.4406L26.8058 26.5354L25.8972 26.6602C25.7217 26.6602 25.2358 26.6391 25.2888 26.4769ZM25.4974 19.4313L25.0366 20.2641C24.938 20.446 24.8492 20.5589 24.7693 20.611C24.6989 20.6548 24.5595 20.6732 24.3575 20.6732H24.1171L23.7957 21.7386H24.5942C24.9781 21.7386 25.2729 21.5978 25.4137 21.5274C25.565 21.4465 25.6048 21.4927 25.7218 21.3798L25.9915 21.1462H28.4848L28.8157 20.0369H26.9906L27.3092 19.4313H25.4974ZM29.1783 26.4983C29.1358 26.4371 29.1664 26.3293 29.2313 26.1048L29.9128 23.8492H32.3371C32.6904 23.8441 32.9455 23.84 33.1114 23.8281C33.2896 23.8094 33.4834 23.7458 33.6946 23.6316C33.9126 23.5119 34.0241 23.3857 34.1183 23.2409C34.2234 23.0963 34.3921 22.7801 34.5369 22.2924L35.3935 19.438L32.8778 19.4526C32.8778 19.4526 32.1031 19.5669 31.7621 19.693C31.4179 19.8338 30.9262 20.2269 30.9262 20.2269L31.1533 19.4445H29.5993L27.4236 26.6601C27.3464 26.9404 27.2947 27.1437 27.2828 27.2658C27.2787 27.3974 27.4488 27.5276 27.5589 27.6259C27.6892 27.7242 27.8817 27.7082 28.0663 27.7242C28.2605 27.7388 28.5366 27.748 28.9178 27.748H30.1121L30.4787 26.5102L29.4095 26.6112C29.2953 26.6112 29.2126 26.55 29.1783 26.4983ZM30.3525 22.3258H32.8989L32.737 22.8331C32.7142 22.845 32.6598 22.808 32.4007 22.8386H30.1957L30.3525 22.3258ZM30.8626 20.6241H33.4304L33.2457 21.2352C33.2457 21.2352 32.0355 21.2233 31.8416 21.259C30.9888 21.4066 30.4906 21.8623 30.4906 21.8623L30.8626 20.6241ZM32.794 24.5322C32.7729 24.608 32.7396 24.6542 32.693 24.6889C32.6413 24.7223 32.5577 24.7342 32.4329 24.7342H32.07L32.0914 24.1163H30.5823L30.521 27.137C30.5187 27.355 30.5397 27.4811 30.6992 27.5821C30.8587 27.7083 31.3501 27.7243 32.0115 27.7243H32.9572L33.2986 26.5936L32.4754 26.6388L32.2016 26.6548C32.1642 26.6388 32.1285 26.6242 32.0887 26.5844C32.054 26.5501 31.9955 26.5712 32.0051 26.3532L32.0115 25.5789L32.8749 25.5432C33.3411 25.5432 33.5404 25.3915 33.7105 25.247C33.8727 25.1086 33.9257 24.9494 33.9869 24.7342L34.1318 24.0486H32.9453L32.794 24.5322Z" fill="#FEFEFE"/>
</g>
<defs>
<clipPath id="clip0_2423_218">
<rect width="56" height="35" fill="white"/>
</clipPath>
</defs>
</svg>
